<?xml version="1.0" encoding="UTF-8" standalone="no"?>
<svg
   xmlns:dc="http://purl.org/dc/elements/1.1/"
   xmlns:cc="http://creativecommons.org/ns#"
   xmlns:rdf="http://www.w3.org/1999/02/22-rdf-syntax-ns#"
   xmlns:svg="http://www.w3.org/2000/svg"
   xmlns="http://www.w3.org/2000/svg"
   xmlns:sodipodi="http://sodipodi.sourceforge.net/DTD/sodipodi-0.dtd"
   xmlns:inkscape="http://www.inkscape.org/namespaces/inkscape"
   width="64.380272"
   height="95"
   viewBox="0 0 17.033946 25.135418"
   version="1.1"
   id="svg8"
   inkscape:version="1.0.2 (1.0.2+r75+1)"
   sodipodi:docname="electric-grid.svg">
  <defs
     id="defs2" />
  <sodipodi:namedview
     id="base"
     pagecolor="#ffffff"
     bordercolor="#666666"
     borderopacity="1.0"
     inkscape:pageopacity="0.0"
     inkscape:pageshadow="2"
     inkscape:zoom="2.8"
     inkscape:cx="111.17741"
     inkscape:cy="105.4121"
     inkscape:document-units="px"
     inkscape:current-layer="layer1"
     inkscape:document-rotation="0"
     showgrid="false"
     units="px"
     inkscape:window-width="1850"
     inkscape:window-height="1010"
     inkscape:window-x="70"
     inkscape:window-y="33"
     inkscape:window-maximized="1" />
  <metadata
     id="metadata5">
    <rdf:RDF>
      <cc:Work
         rdf:about="">
        <dc:format>image/svg+xml</dc:format>
        <dc:type
           rdf:resource="http://purl.org/dc/dcmitype/StillImage" />
        <dc:title />
      </cc:Work>
    </rdf:RDF>
  </metadata>
  <g
     inkscape:label="Layer 1"
     inkscape:groupmode="layer"
     id="layer1"
     transform="translate(0.97634826,1.5121448)">
    <g
       id="path856"
       style="opacity:1;fill:#fabd17;fill-opacity:1;stroke-width:1.00012;stroke-miterlimit:4;stroke-dasharray:none"
       transform="matrix(1.1512636,0,0,1.111141,-1.1400777,-1.7335043)">
      <path
         style="color:#000000;font-style:normal;font-variant:normal;font-weight:normal;font-stretch:normal;font-size:medium;line-height:normal;font-family:sans-serif;font-variant-ligatures:normal;font-variant-position:normal;font-variant-caps:normal;font-variant-numeric:normal;font-variant-alternates:normal;font-variant-east-asian:normal;font-feature-settings:normal;font-variation-settings:normal;text-indent:0;text-align:start;text-decoration:none;text-decoration-line:none;text-decoration-style:solid;text-decoration-color:#000000;letter-spacing:normal;word-spacing:normal;text-transform:none;writing-mode:lr-tb;direction:ltr;text-orientation:mixed;dominant-baseline:auto;baseline-shift:baseline;text-anchor:start;white-space:normal;shape-padding:0;shape-margin:0;inline-size:0;clip-rule:nonzero;display:inline;overflow:visible;visibility:visible;isolation:auto;mix-blend-mode:normal;color-interpolation:sRGB;color-interpolation-filters:linearRGB;solid-color:#000000;solid-opacity:1;vector-effect:none;fill:#fabd17;fill-opacity:1;fill-rule:nonzero;stroke:none;stroke-width:1.00012;stroke-linecap:butt;stroke-linejoin:miter;stroke-miterlimit:4;stroke-dasharray:none;stroke-dashoffset:0;stroke-opacity:1;color-rendering:auto;image-rendering:auto;shape-rendering:auto;text-rendering:auto;enable-background:accumulate;stop-color:#000000;stop-opacity:1"
         d="m 2.1146806,22.676296 c -0.039778,-0.0427 -0.072325,-0.107196 -0.072325,-0.14333 0,-0.03614 0.6944862,-2.087749 1.5433022,-4.559146 l 1.5433031,-4.493449 0.141223,-1.419943 c 0.07767,-0.780968 0.150865,-1.495763 0.162648,-1.588432 l 0.02143,-0.168488 H 2.9484393 c -2.76185776,0 -2.68478696,0.006 -2.73303656,-0.213654 -0.015886,-0.07232 -0.00571,-0.1361318 0.030563,-0.191478 C 0.30343294,9.8106697 0.21554454,9.8418037 3.8691245,8.6147579 4.7080199,8.3330166 5.4587399,8.0781227 5.5373909,8.0483286 l 0.143002,-0.054174 0.113046,-1.1066187 c 0.06217,-0.6086398 0.117542,-1.1385431 0.123034,-1.1775617 0.0099,-0.070304 -0.01554,-0.071109 -2.8099808,-0.089212 C 1.5555108,5.6107151 0.28447134,5.5987424 0.28196104,5.5941564 0.17784704,5.4040676 0.18959214,5.260458 0.31581904,5.1801617 0.41259784,5.1185982 6.3627259,3.3156611 6.4691219,3.3156611 c 0.04295,0 0.07823,-0.00399 0.07842,-0.00887 1.79e-4,-0.00487 0.166503,-0.6606334 0.369598,-1.4572414 0.226836,-0.88972945 0.393005,-1.47461445 0.430819,-1.51639725 0.08274,-0.091426 0.302151,-0.091426 0.384892,0 0.03782,0.041782 0.203982,0.6266678 0.430818,1.51639725 0.203095,0.796608 0.369415,1.4523691 0.369598,1.4572468 1.77e-4,0.00487 0.03547,0.00887 0.07842,0.00887 0.106395,0 6.0565231,1.8029371 6.1533021,1.8645006 0.126226,0.080296 0.137972,0.2239059 0.03385,0.4139946 -0.0025,0.00464 -1.273549,0.016559 -2.824531,0.026606 -2.7944381,0.018108 -2.8198771,0.018913 -2.8099821,0.089212 0.0055,0.039016 0.06085,0.5689263 0.123035,1.1775731 l 0.113049,1.1066301 0.251551,0.089303 c 0.296385,0.1052189 5.0964761,1.7234275 5.1122021,1.7234275 0.0059,0 0.03647,0.039261 0.0679,0.087239 0.08092,0.1235006 0.03805,0.2894236 -0.09219,0.3567706 -0.08706,0.04501 -0.462557,0.05259 -2.607514,0.05259 H 9.6265419 l 0.02142,0.168488 c 0.01178,0.09267 0.08497,0.807464 0.162649,1.588433 l 0.141223,1.419943 1.5433021,4.493448 c 0.848816,2.471397 1.543302,4.523013 1.543302,4.559146 0,0.110502 -0.132194,0.220961 -0.264436,0.220961 -0.09641,0 -0.139954,-0.02597 -0.223107,-0.133016 -0.05683,-0.07316 -0.826755,-1.214449 -1.710953,-2.536198 L 9.2323189,17.681533 h -1.690748 -1.690747 l -0.577854,0.860179 c -0.31782,0.473099 -1.041547,1.554529 -1.6082819,2.40318 -1.2495487,1.87112 -1.2029456,1.809034 -1.3578998,1.809034 -0.077549,0 -0.1452895,-0.02738 -0.1921114,-0.07763 z m 2.1405763,-3.546152 c 0.519223,-0.773755 0.944043,-1.416678 0.944043,-1.428719 0,-0.01204 -0.219033,-0.01746 -0.486742,-0.01203 l -0.486741,0.0099 -0.2434064,0.709426 c -0.1338735,0.390187 -0.3603301,1.050595 -0.5032375,1.467577 -0.1429071,0.416981 -0.2391603,0.736224 -0.2138952,0.709425 0.025264,-0.0268 0.470755,-0.681796 0.9899791,-1.455551 z m 7.3448831,0.741741 c -0.142085,-0.41457 -0.367868,-1.073006 -0.501741,-1.46319 l -0.243407,-0.709426 -0.486741,-0.0099 c -0.267709,-0.0054 -0.4867421,-8.75e-4 -0.4867421,0.01011 0,0.03321 1.9432361,2.926146 1.9655491,2.926146 0.0062,0 -0.104833,-0.339195 -0.246918,-0.753765 z m -1.471598,-2.736504 c -0.02858,-0.02725 -0.6227331,-0.443277 -1.3203691,-0.924494 l -1.268427,-0.87494 -1.267769,0.874918 c -0.697273,0.481205 -1.291142,0.897227 -1.319709,0.924494 -0.0445,0.04248 0.326206,0.04958 2.588137,0.04958 2.261381,0 2.6326261,-0.0071 2.5881371,-0.04955 z M 5.8466509,15.873582 c 0.658436,-0.454475 1.197156,-0.838859 1.197156,-0.854184 0,-0.04826 -1.499351,-1.067093 -1.526686,-1.037409 -0.02443,0.02654 -0.956304,2.721408 -0.956304,2.765532 0,0.01125 0.01995,0.0052 0.04434,-0.01359 0.02439,-0.01871 0.583059,-0.405877 1.241495,-0.860353 z M 10.055615,15.372123 C 9.7993049,14.623096 9.5779099,13.997536 9.5636269,13.981989 c -0.03205,-0.03489 -1.534182,0.998787 -1.518744,1.045103 0.01191,0.03576 2.4508511,1.732755 2.4670631,1.71657 0.0053,-0.0053 -0.20002,-0.622512 -0.456331,-1.371539 z M 8.1912639,14.258554 c 0.342776,-0.23411 0.623877,-0.437625 0.624668,-0.452258 8.09e-4,-0.01463 -0.573196,-0.0266 -1.275527,-0.0266 -0.702332,0 -1.276254,0.01196 -1.275384,0.0266 0.0019,0.03249 1.248457,0.893554 1.280331,0.884416 0.01248,-0.0035 0.303135,-0.198047 0.645912,-0.432158 z m 0.767993,-0.990261 c 0,-0.01981 -1.382558,-1.241266 -1.421514,-1.25587 -0.02664,-0.01 -1.45166,1.224941 -1.45166,1.258016 0,0.007 0.646463,0.01265 1.436586,0.01265 0.790123,0 1.436588,-0.0067 1.436588,-0.0148 z m 0.407274,-0.472928 c -0.0091,-0.05365 -0.05716,-0.528522 -0.106717,-1.055271 -0.04955,-0.526748 -0.101545,-1.003221 -0.115523,-1.058829 -0.02536,-0.100873 -0.02677,-0.09991 -0.619559,0.421451 -0.326778,0.287405 -0.592972,0.532427 -0.591539,0.544495 0.0035,0.02998 1.392024,1.243409 1.424228,1.244683 0.01414,5.7e-4 0.01825,-0.04288 0.0091,-0.09653 z m -2.923428,-0.542554 c 0.366608,-0.321012 0.667704,-0.593856 0.669104,-0.606316 0.0046,-0.04045 -1.136223,-1.031885 -1.159975,-1.008133 -0.03816,0.03816 -0.244398,2.221012 -0.208726,2.20912 0.01817,-0.006 0.332989,-0.273659 0.699597,-0.594671 z m 1.710343,-1.517766 0.488892,-0.431537 h -1.108833 -1.108833 l 0.08787,0.08759 c 0.04833,0.04817 0.295379,0.270381 0.548999,0.493792 0.448775,0.395323 0.463026,0.404536 0.532069,0.343948 0.03902,-0.03425 0.290943,-0.256448 0.559834,-0.493793 z M 5.5615979,9.1772944 c 0.03152,-0.3267794 0.05469,-0.5965149 0.05147,-0.5994135 -0.0082,-0.00744 -3.3600214,1.1173888 -3.4465631,1.1566079 -0.043682,0.019797 0.5840303,0.033073 1.633414,0.034552 l 1.7043571,0.00245 0.05732,-0.594144 z m 3.490577,0.4611265 C 9.0413149,9.5652639 9.0156149,9.32184 8.9950549,9.0974841 8.9744849,8.873129 8.9493049,8.6376879 8.9391249,8.574283 l -0.01854,-0.1152818 h -1.380176 -1.380166 l -0.01855,0.1152818 c -0.0102,0.063407 -0.03537,0.298846 -0.05593,0.5232011 -0.02057,0.2243559 -0.04627,0.467777 -0.05712,0.5409368 l -0.01974,0.1330175 h 1.531501 1.5315 z m 3.8621281,0.096068 C 12.827763,9.6952719 9.4759709,8.5704664 9.4677399,8.577881 c -0.0032,0.00289 0.01995,0.2726341 0.05147,0.5994135 l 0.05732,0.594144 1.7043571,-0.00245 c 1.049384,-0.00149 1.677094,-0.014765 1.633414,-0.034553 z M 8.5336009,7.9469176 c 0,-0.00849 -0.226288,-0.2231516 -0.50286,-0.4769647 L 7.5278819,7.0084755 7.2947119,7.2179471 C 7.1664689,7.3331563 6.9338459,7.547051 6.7777729,7.6932682 l -0.283771,0.2658496 1.0198,0.00166 c 0.560889,8.752e-4 1.019799,-0.00534 1.019799,-0.013846 z m 0.232457,-1.16284 c -0.03352,-0.3566445 -0.07251,-0.6870726 -0.08663,-0.734283 -0.02453,-0.08197 -0.04161,-0.071136 -0.378393,0.2401303 -0.193987,0.1792837 -0.352703,0.3426554 -0.352703,0.3630483 0,0.042788 0.841593,0.8166375 0.863884,0.7943455 0.0081,-0.00814 -0.01263,-0.3065958 -0.04615,-0.6632411 z M 6.7955079,6.9705325 7.1324859,6.6515624 6.7777729,6.3176361 C 6.5826809,6.1339756 6.4169769,5.9893898 6.4095419,5.9963336 c -0.01451,0.013548 -0.14356,1.2196784 -0.145149,1.3566055 l -9.63e-4,0.082224 0.09755,-0.072833 c 0.05365,-0.040057 0.249185,-0.2163672 0.434523,-0.3918009 z m 1.17942,-1.0872201 c 0.131687,-0.1239086 0.239432,-0.2335516 0.239432,-0.2436513 0,-0.0101 -0.311261,-0.018362 -0.691691,-0.018362 -0.380429,0 -0.690403,0.011973 -0.688829,0.026606 0.0016,0.014633 0.15643,0.164983 0.344127,0.3341135 l 0.341266,0.3075113 0.108133,-0.090463 c 0.05947,-0.049755 0.215875,-0.1918434 0.347562,-0.315752 z M 6.1000729,5.0448905 c 0.01224,-0.043895 0.07866,-0.3032796 0.147598,-0.5764084 0.06893,-0.2731289 0.134447,-0.5269462 0.145586,-0.5640384 0.01634,-0.054406 0.0074,-0.062518 -0.04591,-0.041972 -0.03639,0.014006 -0.959221,0.2962625 -2.050727,0.6272323 -1.0915054,0.3309699 -1.9920323,0.6092403 -2.0011712,0.6183793 -0.00914,0.00914 0.8381539,0.016618 1.8828722,0.016618 h 1.899489 z m 2.348465,0 C 8.4362219,5.0009953 8.3605479,4.7056962 8.2803739,4.3886716 L 8.1346049,3.8122634 h -0.5942 -0.594199 l -0.14577,0.5764082 c -0.08018,0.3170246 -0.155847,0.6123232 -0.168165,0.6562189 l -0.02239,0.07981 h 0.930528 0.930527 z m 4.3368231,0.063195 C 12.776261,5.0989455 11.875696,4.8206757 10.78419,4.4897058 9.6926839,4.158736 8.7698599,3.8764809 8.7334669,3.8624731 c -0.05338,-0.020549 -0.06225,-0.012435 -0.04591,0.041972 0.01113,0.037091 0.07666,0.2909096 0.145587,0.5640385 0.06893,0.2731288 0.135352,0.5325126 0.147598,0.5764083 l 0.02227,0.07981 H 10.9025 c 1.044718,0 1.892011,-0.00747 1.882872,-0.016618 z M 7.9878959,3.2535912 C 7.9777699,3.2194482 7.8783179,2.8283788 7.7668999,2.3845449 7.6554809,1.9407104 7.5529449,1.5775728 7.5390439,1.5775728 c -0.01391,0 -0.11569,0.3631376 -0.226193,0.8069721 -0.110503,0.4438339 -0.209339,0.8349048 -0.219634,0.8690463 -0.01716,0.056918 0.01999,0.062075 0.447188,0.062075 0.427089,0 0.464372,-0.00516 0.447491,-0.062075 z M 0.47866434,12.346213 c -0.00813,-0.0081 -0.00948,-0.127762 -0.00299,-0.266035 l 0.01178,-0.251406 h 0.3340634 0.33406636 v 0.266035 0.266034 H 0.82451894 c -0.1820861,0 -0.3377163,-0.0067 -0.3458449,-0.01462 z M 13.925235,12.094807 v -0.266035 h 0.336978 0.336976 v 0.266035 0.266034 H 14.262213 13.925235 Z M 0.47989734,11.39425 c -9.452e-4,-0.0048 -0.00494,-0.124601 -0.00887,-0.266053 l -0.00714,-0.257184 0.3458449,1.7e-5 0.34584526,1.8e-5 v 0.266035 0.266034 H 0.81859514 c -0.1853375,0 -0.3377519,-0.0039 -0.3386997,-0.0089 z M 13.925235,11.137083 v -0.266035 h 0.336978 0.336976 v 0.266035 0.266034 H 14.262213 13.925235 Z M 0.46923434,7.4214831 0.47458174,7.1642988 0.81507654,7.1541466 1.1555713,7.1439944 v 0.267319 0.267319 l -0.34584526,1.75e-5 -0.3458448,1.75e-5 z M 13.925235,7.4125999 V 7.1465648 h 0.336978 0.336976 V 7.4125999 7.6786342 H 14.262213 13.925235 Z M 0.46928324,6.4698483 l 0.0054,-0.2510956 0.3404559,-0.00613 0.34045586,-0.00613 -10e-6,0.2571677 -9.9e-6,0.257166 -0.34584536,1.75e-5 -0.3458448,1.75e-5 z M 13.925235,6.463722 V 6.2065543 h 0.336978 0.336976 V 6.463722 6.7208879 h -0.336976 -0.336978 z"
         id="path10" />
      <path
         style="color:#000000;font-style:normal;font-variant:normal;font-weight:normal;font-stretch:normal;font-size:medium;line-height:normal;font-family:sans-serif;font-variant-ligatures:normal;font-variant-position:normal;font-variant-caps:normal;font-variant-numeric:normal;font-variant-alternates:normal;font-variant-east-asian:normal;font-feature-settings:normal;font-variation-settings:normal;text-indent:0;text-align:start;text-decoration:none;text-decoration-line:none;text-decoration-style:solid;text-decoration-color:#000000;letter-spacing:normal;word-spacing:normal;text-transform:none;writing-mode:lr-tb;direction:ltr;text-orientation:mixed;dominant-baseline:auto;baseline-shift:baseline;text-anchor:start;white-space:normal;shape-padding:0;shape-margin:0;inline-size:0;clip-rule:nonzero;display:inline;overflow:visible;visibility:visible;isolation:auto;mix-blend-mode:normal;color-interpolation:sRGB;color-interpolation-filters:linearRGB;solid-color:#000000;solid-opacity:1;vector-effect:none;fill:#fabd17;fill-opacity:1;fill-rule:nonzero;stroke:none;stroke-width:1.00012;stroke-linecap:butt;stroke-linejoin:miter;stroke-miterlimit:4;stroke-dasharray:none;stroke-dashoffset:0;stroke-opacity:1;color-rendering:auto;image-rendering:auto;shape-rendering:auto;text-rendering:auto;enable-background:accumulate;stop-color:#000000;stop-opacity:1"
         d="m 7.5410156,0.19921875 c -0.088881,0 -0.1812983,0.0225625 -0.2421875,0.0898438 -0.0224,0.0247507 -0.023756,0.0366921 -0.033203,0.0605469 -0.00945,0.0238548 -0.018786,0.0537472 -0.03125,0.0917969 -0.024928,0.0760994 -0.056301,0.1826384 -0.09375,0.31445313 C 7.0657262,1.0194888 6.9670317,1.3887351 6.8535156,1.8339844 6.7519626,2.2323101 6.6587973,2.5952093 6.5917969,2.859375 c -0.0335,0.1320828 -0.06127,0.2397767 -0.080078,0.3144531 -0.00835,0.033145 -0.014639,0.056548 -0.019531,0.076172 -0.00796,3.693e-4 -0.014128,0 -0.023437,0 -8.312e-4,0 -0.00855,-4.494e-4 -0.011719,0 -0.00317,4.494e-4 -0.00679,0.00138 -0.00977,0.00195 -0.00595,0.00115 -0.0118,0.00207 -0.019531,0.00391 -0.015463,0.00367 -0.035486,0.00892 -0.060547,0.015625 -0.050122,0.0134 -0.1203036,0.033829 -0.2070313,0.058594 C 5.986701,3.3796073 5.7442921,3.4501296 5.4570312,3.5351562 4.8825096,3.7052096 4.125708,3.9328633 3.3691406,4.1621094 2.6125732,4.3913554 1.856521,4.6210768 1.2832031,4.7988281 0.99654419,4.8877038 0.75653084,4.9642193 0.58398438,5.0195312 c -0.0862732,0.027656 -0.1555074,0.049599 -0.20507813,0.066406 -0.0247854,0.0084 -0.0454397,0.015895 -0.0605469,0.021484 -0.0151071,0.00559 -0.0171319,0.00487 -0.0371094,0.017578 -0.0773976,0.049235 -0.12753277,0.1264053 -0.13476562,0.2148438 -0.007233,0.088438 0.0221932,0.1830374 0.078125,0.2851562 0,0 0.0351078,0.031232 0.0351562,0.03125 4.846e-5,1.81e-5 0.009679,0.00193 0.009766,0.00195 1.7399e-4,3.68e-5 0.00443,0.00179 0.005859,0.00195 0.002859,3.284e-4 0.004003,-1.157e-4 0.005859,0 0.003713,2.315e-4 0.008451,0.00177 0.0136719,0.00195 0.0104419,3.635e-4 0.0257517,-3.962e-4 0.0449219,0 0.0383403,7.924e-4 0.0940595,9.898e-4 0.16601563,0.00195 0.14391216,0.00193 0.3513996,0.0054 0.60742184,0.00781 0.5120446,0.00482 1.2166437,0.010601 1.9921876,0.015625 1.3972153,0.00905 2.1028436,0.012255 2.4550781,0.023437 0.1692462,0.00537 0.251513,0.014251 0.2871093,0.021484 -0.00536,0.043227 -0.016654,0.1499286 -0.037109,0.3457031 -0.022308,0.2135053 -0.050942,0.4983701 -0.082031,0.8027344 l -0.109375,1.0664062 -0.1054687,0.039063 c -0.032565,0.012336 -0.2445974,0.084867 -0.546875,0.1875 C 4.6645192,8.276461 4.267042,8.4118845 3.8476562,8.5527344 2.0208746,9.1662545 1.1308159,9.4640347 0.6875,9.6210938 0.46584205,9.6996233 0.35644679,9.7415613 0.29296875,9.7734375 c -0.063478,0.031876 -0.0904484,0.070928 -0.1015625,0.087891 -0.045941,0.070098 -0.0599209,0.1561225 -0.0410156,0.2421875 0.005642,0.02568 0.0103067,0.05254 0.0214844,0.08203 0.0111777,0.02949 0.0325165,0.06131 0.0644531,0.08398 0.0638733,0.04535 0.15271566,0.06292 0.32226563,0.07617 0.33909994,0.02651 1.00974402,0.02344 2.39062502,0.02344 h 2.4296874 l -0.011719,0.09375 c -0.012828,0.100887 -0.084428,0.810711 -0.1621094,1.591797 l -0.140625,1.412109 -1.5410156,4.486328 c -0.424434,1.23578 -0.810073,2.364928 -1.0898434,3.191411 -0.1398853,0.413242 -0.2535852,0.752019 -0.3320313,0.988281 -0.039223,0.118132 -0.069064,0.210595 -0.089844,0.275391 -0.01039,0.0324 -0.019878,0.05783 -0.025391,0.07617 -0.00276,0.0092 -0.0042,0.01529 -0.00586,0.02148 -8.278e-4,0.0031 -0.00126,0.0066 -0.00195,0.0098 -3.47e-4,0.0016 -0.00158,0.0035 -0.00195,0.0059 -3.751e-4,0.0023 0,0.01144 0,0.01172 0,0.03793 0.011456,0.06813 0.027344,0.09961 0.015887,0.03148 0.037422,0.06097 0.0625,0.08789 0.060343,0.06476 0.1471161,0.09961 0.2402344,0.09961 0.034321,1e-6 0.085066,0.0034 0.1367188,-0.0293 0.051653,-0.03274 0.1020889,-0.08999 0.1855468,-0.201172 0.1669159,-0.22237 0.4650927,-0.671897 1.0898438,-1.607422 0.5667042,-0.848605 1.2916538,-1.931345 1.609375,-2.404297 l 0.5585938,-0.830078 h 1.6542968 1.65625 l 1.5878901,2.373047 c 0.442141,0.660936 0.855837,1.27654 1.166016,1.736328 0.155089,0.229894 0.284817,0.420508 0.378906,0.558594 0.09409,0.138085 0.147038,0.219148 0.167969,0.246093 0.04342,0.05589 0.07962,0.09599 0.125,0.123047 0.04538,0.02706 0.09625,0.03516 0.150391,0.03516 0.08454,1e-6 0.163927,-0.03328 0.224609,-0.08398 0.06068,-0.05071 0.107422,-0.121497 0.107422,-0.203125 0,-2.82e-4 -0.0016,-0.0094 -0.002,-0.01172 -3.76e-4,-0.0023 3.47e-4,-0.0043 0,-0.0059 -6.94e-4,-0.0032 -0.0031,-0.0067 -0.0039,-0.0098 -0.0017,-0.0062 -0.0031,-0.01231 -0.0059,-0.02148 -0.0055,-0.01835 -0.01305,-0.04377 -0.02344,-0.07617 -0.02078,-0.0648 -0.05257,-0.157259 -0.0918,-0.275391 C 12.90007,21.89655 12.788323,21.557773 12.648438,21.144531 12.368667,20.318047 11.983028,19.1889 11.558594,17.953125 L 10.017578,13.466797 9.8769531,12.054688 C 9.7992625,11.273602 9.7257143,10.563771 9.7128906,10.462891 l -0.011719,-0.09375 h 2.4316404 c 1.072557,0 1.702018,-0.0022 2.076172,-0.0098 0.187078,-0.0038 0.310634,-0.0083 0.394532,-0.01563 0.0839,-0.0073 0.127692,-0.01339 0.166015,-0.0332 0.164354,-0.08499 0.218862,-0.29795 0.117188,-0.4531251 -0.01657,-0.025294 -0.03299,-0.04857 -0.04687,-0.066406 -0.0069,-0.00892 -0.01282,-0.01634 -0.01953,-0.023437 -0.0034,-0.00355 -0.0062,-0.00534 -0.01172,-0.00977 -0.0028,-0.00221 -0.01116,-0.00751 -0.01172,-0.00781 -2.78e-4,-1.496e-4 -0.01149,-0.00578 -0.01172,-0.00586 -6.5e-5,-2.12e-5 -0.0035,-0.00157 -0.0059,-0.00195 -0.002,-6.07e-4 -0.0051,-4.696e-4 -0.0098,-0.00195 -0.0092,-0.00297 -0.02305,-0.00776 -0.04101,-0.013672 -0.03593,-0.011825 -0.08962,-0.030522 -0.15625,-0.052734 C 14.439012,9.6294024 14.249887,9.5669023 14.021484,9.4902344 13.564679,9.3368986 12.953483,9.1307205 12.333984,8.921875 11.094988,8.504184 9.8166751,8.0721961 9.6738281,8.0214844 L 9.4628906,7.9453125 9.3535156,6.8808594 C 9.3224187,6.5764928 9.2918369,6.2916322 9.2695312,6.078125 9.2491932,5.8834511 9.2398054,5.7783647 9.234375,5.734375 9.2704622,5.7271805 9.3514301,5.7182274 9.5195312,5.7128906 9.8717659,5.7017081 10.577395,5.696554 11.974609,5.6875 12.750153,5.68248 13.456704,5.676692 13.96875,5.671875 c 0.256023,-0.00241 0.463509,-0.00588 0.607422,-0.00781 0.07196,-9.646e-4 0.127672,-0.00116 0.166016,-0.00195 0.01917,-3.981e-4 0.03252,3.665e-4 0.04297,0 0.0052,-1.833e-4 0.0099,-0.00172 0.01367,-0.00195 L 14.857422,5.625 c 0.05594,-0.102119 0.0834,-0.1967173 0.07617,-0.2851562 C 14.926392,5.2514048 14.878172,5.1742346 14.800779,5.125 14.780799,5.112292 14.776819,5.113011 14.761719,5.107422 14.746609,5.101832 14.727909,5.094341 14.703129,5.085938 14.653559,5.069131 14.584324,5.047188 14.498051,5.019532 14.3255,4.9642193 14.083534,4.8877038 13.796875,4.7988281 13.223557,4.6210768 12.467505,4.3913554 11.710938,4.1621094 10.95437,3.9328633 10.197568,3.7052096 9.6230469,3.5351562 9.3357861,3.4501296 9.093377,3.3796073 8.9199219,3.3300781 8.8331943,3.3053135 8.7649657,3.2848847 8.7148438,3.2714844 c -0.025061,-0.0067 -0.045084,-0.011955 -0.060547,-0.015625 -0.00773,-0.00183 -0.015532,-0.00275 -0.021484,-0.00391 -0.00298,-5.769e-4 -0.00465,-0.0015 -0.00781,-0.00195 -0.00317,-4.494e-4 -0.012841,0 -0.013672,0 -0.00973,0 -0.015217,-0.00155 -0.023437,-0.00195 -0.00486,-0.019484 -0.011384,-0.041872 -0.019531,-0.074219 C 8.549551,3.099151 8.5217812,2.991458 8.4882812,2.859375 8.4212813,2.595209 8.3300687,2.2323102 8.2285156,1.8339844 8.1149996,1.3887353 8.0163041,1.019489 7.9414062,0.75585938 7.9039573,0.62404457 7.8725845,0.51750594 7.8476562,0.44140625 7.8351921,0.4033564 7.8239011,0.37346461 7.8144531,0.34960938 7.8050052,0.32575414 7.8036547,0.31381427 7.78125,0.2890625 7.7203604,0.22178156 7.6298966,0.19921875 7.5410156,0.19921875 Z m 0,0.13085937 c 0.062195,0 0.1207267,0.0227299 0.1425782,0.046875 -0.01295,-0.0143063 4.84e-5,0.001881 0.00781,0.0214844 0.00776,0.0196036 0.017321,0.0474236 0.029297,0.0839844 0.023953,0.0731216 0.056577,0.17774817 0.09375,0.30859374 C 7.8887978,1.0527068 7.9862871,1.420754 8.0996071,1.8652344 8.201149,2.2635166 8.2943462,2.6265391 8.3613258,2.890625 c 0.03349,0.132043 0.05935,0.2399092 0.078125,0.3144531 0.00939,0.037272 0.016554,0.066109 0.021484,0.085937 0.00247,0.00991 0.00464,0.018407 0.00586,0.023437 -2.887e-4,-0.00263 -8e-7,-0.00588 0,-0.00586 1.9e-6,5.31e-5 8.897e-4,0.0055 0.00195,0.00977 0.00198,0.00796 0.00581,0.01748 0.00586,0.017578 7.33e-5,1.504e-4 0.011579,0.01743 0.011719,0.017578 2.787e-4,2.968e-4 0.017045,0.013384 0.017578,0.013672 0.00107,5.754e-4 0.014691,0.00653 0.019531,0.00781 0.00968,0.00256 0.016436,0.00289 0.025391,0.00391 0.016231,0.00184 0.035711,0.00178 0.056641,0.00195 0,0 0.00195,0.00195 0.00195,0.00195 0.00299,5.797e-4 0.00897,3.748e-4 0.015625,0.00195 0.0133,0.00316 0.032253,0.0091 0.056641,0.015625 0.048774,0.01304 0.1187355,0.031986 0.2050781,0.056641 0.1726853,0.049309 0.4141342,0.1201175 0.7011719,0.2050782 0.5740752,0.1699212 1.3295762,0.3977694 2.0859372,0.6269531 0.756361,0.2291837 1.513062,0.4591047 2.085937,0.6367187 0.286438,0.088807 0.527428,0.1636803 0.699219,0.21875 0.0859,0.027535 0.154852,0.050039 0.203125,0.066406 0.02414,0.00818 0.04355,0.014687 0.05664,0.019531 0.01309,0.00484 0.02565,0.01472 0.01172,0.00586 0.04883,0.031061 0.07005,0.064272 0.07422,0.1152344 0.0035,0.042945 -0.02007,0.1079277 -0.05273,0.1777344 -0.0045,1.03e-4 -0.0066,-1.068e-4 -0.01172,0 -0.0377,7.829e-4 -0.09227,0.00294 -0.164062,0.00391 -0.14358,0.00192 -0.351498,0.00345 -0.607422,0.00586 -0.511849,0.00481 -1.216749,0.010602 -1.992188,0.015625 -1.397224,0.00905 -2.1023631,0.014069 -2.4589837,0.025391 -0.1783103,0.00566 -0.2674084,0.010405 -0.3242188,0.023437 -0.028405,0.00652 -0.054544,0.014783 -0.076172,0.042969 -0.021628,0.028185 -0.017136,0.061533 -0.015625,0.072266 0.00125,0.00889 0.016772,0.1596832 0.039063,0.3730469 0.022291,0.2133636 0.050943,0.4984541 0.082031,0.8027343 L 9.337889,8.0429687 9.6289046,8.1464843 c 0.1535381,0.054507 1.4249854,0.4826726 2.6640624,0.9003906 0.619538,0.208859 1.22865,0.414993 1.685547,0.5683594 0.228448,0.076683 0.419315,0.1410658 0.552734,0.1855468 0.06671,0.022241 0.119997,0.038851 0.15625,0.050781 0.01813,0.00597 0.03116,0.010509 0.04102,0.013672 2.53e-4,2.971e-4 0.0017,-3.242e-4 0.002,0 0.0021,0.00249 0.003,0.00408 0.0059,0.00781 0.01073,0.013788 0.02615,0.033956 0.04102,0.056641 0.06017,0.091826 0.02777,0.2120119 -0.06836,0.2617189 -0.0052,0.0027 -0.03916,0.0147 -0.117187,0.02149 -0.07802,0.0068 -0.198967,0.01188 -0.384766,0.01563 -0.371598,0.0075 -1.001818,0.0098 -2.074219,0.0098 H 9.5507812 l 0.03125,0.242188 c 0.010736,0.08446 0.084442,0.805085 0.1621094,1.585937 l 0.1425782,1.427735 1.5449222,4.501953 c 0.424381,1.235622 0.810167,2.365199 1.089843,3.191406 0.139839,0.413103 0.253736,0.750519 0.332032,0.986328 0.03915,0.117905 0.06933,0.211419 0.08984,0.275391 0.01026,0.03199 0.01836,0.05538 0.02344,0.07227 0.0018,0.0059 0.0028,0.0099 0.0039,0.01367 -9.07e-4,0.02871 -0.01904,0.06819 -0.05664,0.09961 -0.03848,0.03215 -0.09292,0.05273 -0.140624,0.05273 -0.04227,0 -0.06075,-0.0049 -0.08203,-0.01758 -0.02129,-0.01269 -0.04816,-0.03869 -0.08789,-0.08984 -0.0075,-0.0096 -0.07018,-0.100494 -0.164063,-0.238281 -0.09389,-0.137787 -0.223886,-0.328802 -0.378906,-0.558594 -0.310041,-0.459584 -0.723958,-1.073562 -1.166016,-1.734375 L 9.2675781,17.615234 H 7.5410156 5.8164062 L 5.21875,18.503906 c -0.3179188,0.473246 -1.0426094,1.5556 -1.609375,2.404297 -0.6247976,0.935595 -0.9269823,1.389149 -1.0878906,1.603516 -0.080454,0.107183 -0.1261992,0.151921 -0.1484375,0.166015 -0.022238,0.01409 -0.023251,0.0098 -0.066406,0.0098 -0.06198,0 -0.1112317,-0.0209 -0.1445312,-0.05664 -0.0147,-0.01578 -0.028732,-0.03812 -0.039063,-0.05859 -0.010331,-0.02047 -0.013672,-0.04086 -0.013672,-0.03906 0.00101,-0.0035 0.00237,-0.0066 0.00391,-0.01172 0.00507,-0.01689 0.01318,-0.04028 0.023438,-0.07227 0.020515,-0.06397 0.050696,-0.157486 0.089844,-0.275391 0.078296,-0.235809 0.1921929,-0.573225 0.3320313,-0.986328 0.2796766,-0.826206 0.665462,-1.955784 1.0898437,-3.191406 l 1.5449219,-4.501953 0.1425781,-1.427735 c 0.077658,-0.780851 0.1513714,-1.501487 0.1621094,-1.585937 l 0.03125,-0.242188 H 2.9492188 c -1.3809768,0 -2.0540148,1.1e-5 -2.3789063,-0.02539 -0.16244575,-0.0127 -0.2362583,-0.03548 -0.2578125,-0.05078 -0.0107771,-0.0077 -0.0129468,-0.01122 -0.0175781,-0.02344 -0.004631,-0.01222 -0.009205,-0.03327 -0.015625,-0.0625 C 0.2664302,10.017636 0.2741759,9.9761754 0.3007813,9.9355809 0.3184008,9.9086899 0.30118264,9.9179109 0.3515626,9.8926119 0.40194241,9.8672793 0.51021791,9.8241247 0.73046875,9.7460938 1.1709704,9.5900318 2.0638267,9.2912601 3.890625,8.6777344 4.3101346,8.5368429 4.7072967,8.401526 5.0097656,8.2988281 5.3122346,8.1961302 5.5144607,8.1268331 5.5605469,8.109375 L 5.7421875,8.0410156 5.859375,6.8945312 C 5.890455,6.5902557 5.919113,6.3051579 5.941406,6.0917969 5.963699,5.8784359 5.98116,5.7277169 5.982422,5.71875 5.983932,5.708017 5.986472,5.674673 5.964844,5.646484 5.9432173,5.618296 5.9170773,5.6100323 5.8886719,5.6035156 5.831861,5.5904822 5.7427635,5.585739 5.5644531,5.5800781 5.2078324,5.5687564 4.5046473,5.563739 3.1074219,5.5546875 2.3319844,5.5496643 1.6251293,5.5438839 1.1132812,5.5390625 c -0.25592399,-0.00241 -0.46188678,-0.00394 -0.6054687,-0.00586 -0.071791,-9.61e-4 -0.12830698,-0.00313 -0.16601562,-0.00391 -0.005142,-1.063e-4 -0.007256,1.024e-4 -0.0117188,0 -0.0326265,-0.069764 -0.0542919,-0.1348088 -0.0507812,-0.1777344 0.004168,-0.050963 0.0234363,-0.084173 0.0722656,-0.1152344 -0.0139288,0.00886 5.7962e-4,-0.00102 0.0136719,-0.00586 0.0130922,-0.00484 0.0325037,-0.011348 0.0566406,-0.019531 0.0482737,-0.016367 0.11527646,-0.038871 0.20117188,-0.066406 C 0.79483771,5.0894615 1.0358281,5.0145883 1.3222656,4.9257812 1.8951407,4.7481672 2.6518417,4.5182462 3.4082031,4.2890625 4.1645646,4.0598788 4.9220182,3.8320306 5.4960938,3.6621094 5.7831315,3.5771487 6.0245803,3.5063406 6.1972656,3.4570312 c 0.086343,-0.024655 0.1543507,-0.043601 0.203125,-0.056641 0.024387,-0.00652 0.04334,-0.012468 0.056641,-0.015625 0.00665,-0.00158 0.012635,-0.00137 0.015625,-0.00195 0,0 0.00195,-0.00195 0.00195,-0.00195 0.020925,-1.698e-4 0.040408,-1.172e-4 0.056641,-0.00195 0.00895,-0.00101 0.017657,-0.00134 0.027344,-0.00391 0.00484,-0.00128 0.018464,-0.00724 0.019531,-0.00781 5.334e-4,-2.881e-4 0.017299,-0.013375 0.017578,-0.013672 1.397e-4,-1.486e-4 0.011645,-0.017427 0.011719,-0.017578 7.36e-5,-1.507e-4 0.00585,-0.027191 0.00586,-0.027344 9e-7,-2.29e-5 2.948e-4,0.00316 0,0.00586 0.00122,-0.00503 0.00339,-0.013524 0.00586,-0.023437 0.00493,-0.019828 0.012097,-0.048666 0.021484,-0.085937 0.018776,-0.074552 0.04659,-0.1824194 0.08008,-0.3144622 C 6.7876832,2.6265395 6.8789268,2.2635166 6.9804688,1.8652344 7.0937887,1.4207542 7.19323,1.0527067 7.2675781,0.79101562 7.3047522,0.66017007 7.3354224,0.55554384 7.359375,0.48242188 c 0.011976,-0.036561 0.021533,-0.0643803 0.029297,-0.0839844 0.00776,-0.0196041 0.020759,-0.0357894 0.00781,-0.0214844 0.021851,-0.0241447 0.082336,-0.046875 0.1445312,-0.046875 z m -0.00195,1.18164068 c -1.087e-4,0 -0.023318,0.00386 -0.023437,0.00391 -1.194e-4,4.42e-5 -0.013542,0.00772 -0.013672,0.00781 -2.599e-4,1.762e-4 -0.01337,0.011368 -0.013672,0.011719 -6.038e-4,7.007e-4 -0.00774,0.010024 -0.00977,0.013672 -0.00405,0.0073 -0.00705,0.014721 -0.00977,0.021484 -0.00543,0.013527 -0.01072,0.029529 -0.017578,0.050781 C 7.4374496,1.6635998 7.4190616,1.7232763 7.3984326,1.796876 7.3571736,1.9440754 7.3034216,2.1467083 7.248042,2.3691416 7.192807,2.5909919 7.1413395,2.7996239 7.1015576,2.9570322 c -0.039782,0.1574084 -0.07038,0.2710911 -0.072266,0.2773438 -0.00314,0.010404 -0.00652,0.023371 -0.00586,0.041016 6.565e-4,0.017645 0.00912,0.040954 0.023437,0.056641 0.028627,0.031373 0.058232,0.034132 0.09375,0.039063 0.071036,0.00986 0.1865255,0.00977 0.4003906,0.00977 0.2138109,0 0.327366,9.15e-5 0.3984375,-0.00977 0.035536,-0.00493 0.065115,-0.00788 0.09375,-0.039063 0.014318,-0.01559 0.022686,-0.038992 0.023437,-0.056641 C 8.0573855,3.257744 8.0538637,3.244803 8.0507737,3.234376 8.048508,3.2267101 8.0185482,3.1144536 7.9785156,2.9570312 7.9384831,2.7996089 7.8877257,2.5909996 7.8320312,2.3691406 7.7761923,2.1467078 7.7212502,1.9440726 7.6796875,1.796875 7.6589062,1.7232762 7.640756,1.6635949 7.6269531,1.6210938 c -0.0069,-0.021251 -0.012129,-0.039215 -0.017578,-0.052734 -0.00272,-0.00676 -0.00571,-0.01225 -0.00977,-0.019531 -0.00203,-0.00364 -0.00916,-0.012971 -0.00977,-0.013672 -3.026e-4,-3.503e-4 -0.013412,-0.011543 -0.013672,-0.011719 -1.301e-4,-8.81e-5 -0.013553,-0.00777 -0.013672,-0.00781 -1.194e-4,-4.42e-5 -0.023329,-0.00391 -0.023437,-0.00391 z m 0,0.2753906 c 0.00498,0.017193 0.00824,0.025683 0.013672,0.044922 0.041035,0.1453299 0.09481,0.3469578 0.1503906,0.5683594 0.055724,0.221975 0.1083581,0.430284 0.1484375,0.5878906 0.035662,0.1402371 0.054078,0.2142662 0.064453,0.2519532 -0.051405,0.0067 -0.1650009,0.00977 -0.375,0.00977 -0.2111462,0 -0.3260407,-0.00299 -0.3769531,-0.00977 0.010774,-0.038935 0.031181,-0.1125736 0.066406,-0.2519532 0.039836,-0.1576209 0.091216,-0.3659069 0.1464843,-0.5878906 0.055123,-0.2214012 0.1077032,-0.4230313 0.1484375,-0.5683594 0.00539,-0.019239 0.00873,-0.027729 0.013672,-0.044922 z M 6.8945312,3.7460938 6.7363281,4.3730469 C 6.6561796,4.689947 6.5788659,4.9899034 6.5683594,5.0273438 L 6.5234375,5.1914062 H 7.5410156 8.5585938 L 8.5117188,5.0273438 C 8.5012092,4.9898868 8.4238921,4.6899455 8.34375,4.3730469 L 8.1855469,3.7460938 H 7.5410156 Z m -0.5253906,0.041016 c -0.016888,0.00267 -0.029653,0.00779 -0.044922,0.013672 0.00443,-0.00171 -0.020124,0.00598 -0.050781,0.015625 -0.030657,0.00964 -0.072667,0.024232 -0.1269531,0.041016 C 6.0379121,3.8909888 5.8850288,3.937309 5.6992188,3.9941406 5.3275986,4.1078039 4.8230537,4.2603094 4.2773438,4.4257812 3.7314988,4.5912942 3.2339734,4.7433358 2.8710938,4.8554688 2.6896539,4.9115352 2.542492,4.957603 2.4394531,4.9902344 c -0.051519,0.016316 -0.092961,0.029766 -0.1210937,0.039063 -0.014066,0.00465 -0.024938,0.00878 -0.033203,0.011719 -0.00413,0.00147 -0.00823,0.00251 -0.011719,0.00391 -0.00175,7.004e-4 -0.00318,6.801e-4 -0.00586,0.00195 -0.00134,6.365e-4 -0.00568,0.0038 -0.00586,0.00391 -1.799e-4,1.042e-4 -0.013601,0.00969 -0.013672,0.00977 -3.57e-5,3.57e-5 -0.015615,0.031214 -0.015625,0.03125 -9.6e-6,3.56e-5 0.00194,0.044886 0.00195,0.044922 1.64e-5,3.56e-5 0.019489,0.021449 0.019531,0.021484 4.24e-5,3.56e-5 0.011651,0.00973 0.011719,0.00977 1.364e-4,7.09e-5 0.011479,0.00384 0.011719,0.00391 2.394e-4,7.08e-5 0.00423,0.00162 0.00586,0.00195 0.00653,0.00135 0.00958,0.00157 0.013672,0.00195 0.00819,7.654e-4 0.018565,0.00139 0.03125,0.00195 0.025371,0.00113 0.061882,0.00291 0.109375,0.00391 0.094987,0.002 0.2335126,0.0024 0.4042969,0.00391 0.3415686,0.00301 0.8134205,0.00586 1.3359375,0.00586 H 6.1289062 L 6.1640625,5.0625 C 6.1777819,5.0132997 6.2435267,4.7576438 6.3125,4.484375 6.3813757,4.2114611 6.4492501,3.9497389 6.4570312,3.9238281 c 0.00469,-0.015627 0.00844,-0.029734 0.00977,-0.046875 0.00133,-0.017141 4.657e-4,-0.046703 -0.025391,-0.070312 -0.025856,-0.02361 -0.055377,-0.022204 -0.072266,-0.019531 z m 2.3417969,0 c -0.016886,-0.00267 -0.044448,-0.00412 -0.070312,0.019531 -0.025865,0.023649 -0.026729,0.053188 -0.025391,0.070312 0.00134,0.017124 0.00508,0.031261 0.00977,0.046875 0.0078,0.025982 0.075659,0.2876352 0.1445312,0.5605469 0.068966,0.2732702 0.1347036,0.5288959 0.1484376,0.578125 l 0.035156,0.1289062 h 1.9492187 c 0.522516,0 0.996322,-0.00285 1.33789,-0.00586 0.170785,-0.00151 0.307357,-0.00191 0.402344,-0.00391 0.04749,-9.988e-4 0.084,-0.00278 0.109375,-0.00391 0.0039,-1.752e-4 0.0064,1.782e-4 0.0098,0 0.0041,-2.162e-4 0.0082,-0.00171 0.01172,-0.00195 h 0.0098 c 0.0035,-3.294e-4 0.0068,-0.00105 0.01172,-0.00195 7.93e-4,-1.471e-4 10e-4,1.889e-4 0.002,0 0.0016,-3.373e-4 0.0056,-0.00188 0.0059,-0.00195 2.4e-4,-7.08e-5 0.01354,-0.00384 0.01367,-0.00391 6.8e-5,-3.56e-5 0.01168,-0.00973 0.01172,-0.00977 4.2e-5,-3.56e-5 0.01756,-0.021449 0.01758,-0.021484 1.7e-5,-3.57e-5 0.0039,-0.044886 0.0039,-0.044922 -9e-6,-3.57e-5 -0.01754,-0.031214 -0.01758,-0.03125 l -0.02344,-0.023437 -0.01563,0.00195 c -0.008,-0.00284 -0.01818,-0.00545 -0.03125,-0.00977 -0.02813,-0.0093 -0.06762,-0.022747 -0.119141,-0.039063 C 12.539541,4.9576027 12.39238,4.9115352 12.210938,4.8554688 11.848053,4.7433358 11.348579,4.5912941 10.802734,4.4257812 10.257024,4.2603094 9.7544313,4.1078038 9.3828125,3.9941406 9.1970031,3.937309 9.0441188,3.8909889 8.9355469,3.8574219 8.8812609,3.8406384 8.8372981,3.8260511 8.8066406,3.8164062 c -0.030657,-0.00964 -0.053259,-0.01733 -0.048828,-0.015625 -0.01528,-0.00588 -0.029989,-0.011 -0.046875,-0.013671 z m -1.7128906,0.091797 h 0.5429687 0.5429688 l 0.1328125,0.5253907 c 0.079702,0.315158 0.1512329,0.6012905 0.1660156,0.6542969 H 7.5410156 6.6972656 C 6.712055,5.0055707 6.7855268,4.7194536 6.8652344,4.4042969 Z M 6.3125,3.9433594 c 9.312e-4,-2.93e-4 0.00105,2.824e-4 0.00195,0 C 6.2928926,4.0215271 6.2454509,4.2080218 6.1835938,4.453125 6.1146911,4.7261138 6.04787,4.988754 6.0371094,5.0273438 l -0.00977,0.03125 h -1.849605 c -0.5222014,0 -0.9949646,-0.00285 -1.3359375,-0.00586 -0.064555,-5.698e-4 -0.09781,-0.00131 -0.1523438,-0.00195 0.073475,-0.02291 0.1280818,-0.039739 0.2207031,-0.068359 C 3.2727011,4.8703924 3.7707458,4.7181914 4.3164062,4.5527344 4.8622023,4.3872364 5.3645588,4.2348027 5.7363281,4.1210938 5.9222128,4.0642393 6.076744,4.0160601 6.1855469,3.9824219 6.2399483,3.9656028 6.2814611,3.9531242 6.3125,3.9433594 Z m 2.453125,0 c 8.994e-4,2.824e-4 0.00102,-2.93e-4 0.00195,0 0.031039,0.00976 0.074505,0.022243 0.1289063,0.039063 0.1088026,0.033638 0.2613816,0.081818 0.4472656,0.1386719 0.371768,0.1137087 0.8760791,0.2661426 1.4218751,0.4316406 0.545661,0.165457 1.043701,0.317658 1.40625,0.4296875 0.09225,0.028507 0.145484,0.045515 0.21875,0.068359 -0.05453,6.464e-4 -0.08779,0.00138 -0.152344,0.00195 -0.340972,0.00301 -0.813736,0.00586 -1.335937,0.00586 H 9.0527344 l -0.00781,-0.03125 C 9.0341638,4.9887815 8.9653787,4.7261124 8.8964844,4.453125 8.8346294,4.2080197 8.7871669,4.0214838 8.765625,3.9433594 Z M 7.5234375,5.5546875 c -0.1909084,0 -0.3640894,0.00294 -0.4902344,0.00781 -0.063072,0.00244 -0.1153726,0.00639 -0.1523437,0.00977 -0.018486,0.00169 -0.031716,0.00334 -0.044922,0.00586 -0.0066,0.00126 -0.013871,0.00211 -0.023437,0.00586 -0.00239,9.364e-4 -0.00739,0.00368 -0.00781,0.00391 -4.235e-4,2.244e-4 -0.011443,0.00759 -0.011719,0.00781 -2.76e-4,2.259e-4 -0.017452,0.019304 -0.017578,0.019531 -6.33e-5,1.136e-4 -0.00583,0.017464 -0.00586,0.017578 -2.56e-5,1.14e-4 -0.00197,0.02137 -0.00195,0.021484 2.5e-5,2.286e-4 0.00381,0.015331 0.00391,0.015625 9.93e-5,2.944e-4 0.00283,0.00557 0.00391,0.00781 0.00216,0.00449 0.00417,0.00718 0.00586,0.00977 0.00337,0.00518 0.0065,0.00966 0.00977,0.013672 0.00653,0.00802 0.013988,0.017293 0.023437,0.027344 0.0189,0.020101 0.04456,0.045478 0.076172,0.076172 0.063224,0.061388 0.1478171,0.141527 0.2421875,0.2265625 L 7.5175781,6.3769531 7.6699219,6.25 C 7.73315,6.1971008 7.8871874,6.0561673 8.0195312,5.9316406 8.0859091,5.8691835 8.1471257,5.8106857 8.1914062,5.765625 c 0.02214,-0.02253 0.039299,-0.041573 0.052734,-0.056641 0.00672,-0.00753 0.012517,-0.014838 0.017578,-0.021484 0.00253,-0.00332 0.0048,-0.00663 0.00781,-0.011719 0.00151,-0.00254 0.00565,-0.00926 0.00586,-0.00977 1.04e-4,-2.537e-4 0.00385,-0.00956 0.00391,-0.00977 5.23e-5,-2.061e-4 0.00195,-0.015467 0.00195,-0.015625 0,-7.89e-5 -0.00777,-0.029218 -0.00781,-0.029297 -3.79e-5,-7.87e-5 -0.011643,-0.0175 -0.011719,-0.017578 C 8.2615681,5.5935841 8.2444412,5.580225 8.2441412,5.580069 8.2435407,5.5797572 8.2303522,5.575189 8.2265632,5.574209 8.2189832,5.572239 8.2150232,5.571079 8.2089852,5.570299 8.1969092,5.568739 8.1823712,5.567539 8.1640632,5.566389 8.1274472,5.564099 8.0768002,5.562209 8.0136726,5.560529 7.8874164,5.557179 7.714132,5.554669 7.5234382,5.554669 Z m 0,0.1328125 c 0.1897362,0 0.3618463,0.00255 0.4863281,0.00586 0.026547,7.047e-4 0.040652,0.00115 0.0625,0.00195 -0.0403,0.040384 -0.086876,0.088214 -0.1425781,0.140625 -0.1310304,0.1232908 -0.2899921,0.2658899 -0.3457031,0.3125 L 7.5214844,6.201169 7.2226562,5.9335938 C 7.1293296,5.8494987 7.0439366,5.7687122 6.9824219,5.7089844 c -0.00416,-0.00404 -0.00583,-0.00591 -0.00977,-0.00977 0.02234,-0.00122 0.036894,-0.00284 0.064453,-0.00391 0.1235603,-0.00476 0.296812,-0.0078 0.4863326,-0.0078 z M 6.4199219,5.9296875 c -2.688e-4,-3.78e-5 -0.021291,0.00192 -0.021484,0.00195 -9.65e-5,1.75e-5 -0.015548,0.00387 -0.015625,0.00391 -7.73e-5,3.58e-5 -0.01752,0.011664 -0.017578,0.011719 -5.67e-5,5.29e-5 -0.00971,0.01163 -0.00977,0.011719 -6.02e-5,8.92e-5 -0.0058,0.00769 -0.00586,0.00781 -1.273e-4,2.503e-4 -0.00314,0.00568 -0.00391,0.00781 -0.00153,0.00426 -0.0013,0.00716 -0.00195,0.00977 -0.0013,0.00522 -0.00289,0.010041 -0.00391,0.015625 -0.00202,0.011168 -0.00334,0.025258 -0.00586,0.042969 -0.00505,0.035421 -0.012419,0.08572 -0.019531,0.1445312 -0.014224,0.1176214 -0.031667,0.2732018 -0.048828,0.4335938 -0.017161,0.1603919 -0.032336,0.3240941 -0.044922,0.4570312 -0.012586,0.1329371 -0.02098,0.2299444 -0.021484,0.2734375 L 6.1953099,7.5683594 6.400388,7.4160156 C 6.4336258,7.3912011 6.4930314,7.3370689 6.5722656,7.265625 6.6514998,7.1941811 6.748728,7.1076266 6.8417969,7.0195312 L 7.2285156,6.6523438 6.8222656,6.2695312 C 6.7242219,6.1772324 6.6340972,6.0942204 6.5664062,6.0351562 6.5325608,6.0056242 6.5056533,5.9815903 6.484375,5.9648438 6.473736,5.9564738 6.463977,5.9510848 6.455078,5.9453128 c -0.00445,-0.00289 -0.00761,-0.0063 -0.015625,-0.00977 -0.002,-8.665e-4 -0.00747,-0.00184 -0.00781,-0.00195 -3.436e-4,-1.097e-4 -0.01145,-0.00387 -0.011719,-0.00391 z m 2.2011719,0.013672 c -0.018959,0.00491 -0.033196,0.013517 -0.048828,0.023437 -0.062528,0.03968 -0.1478863,0.1196388 -0.3164062,0.2753906 -0.097745,0.090336 -0.1868359,0.1751602 -0.2519532,0.2421875 -0.032559,0.033514 -0.05859,0.063049 -0.078125,0.085937 -0.00977,0.011444 -0.01853,0.021408 -0.025391,0.03125 -0.00343,0.00492 -0.0064,0.00906 -0.00977,0.015625 -0.00168,0.00328 -0.00214,0.00645 -0.00391,0.011719 -8.831e-4,0.00263 -0.00383,0.00938 -0.00391,0.00977 -7.7e-5,3.879e-4 0,0.013353 0,0.013672 0,3.342e-4 0.00185,0.017155 0.00195,0.017578 1.02e-4,4.228e-4 8.509e-4,0.00699 0.00195,0.00977 0.0022,0.00556 0.00586,0.010333 0.00781,0.013672 0.00391,0.00668 0.00761,0.01029 0.011719,0.015625 0.00821,0.010669 0.017066,0.021782 0.029297,0.035156 0.024462,0.026749 0.057584,0.062011 0.097656,0.1015625 0.080145,0.079103 0.1859352,0.1789258 0.2929688,0.2773438 0.1070336,0.098418 0.2157732,0.1946707 0.2988281,0.265625 0.041528,0.035477 0.076429,0.065352 0.1035156,0.085937 0.013543,0.010293 0.025776,0.018559 0.037109,0.025391 0.00567,0.00342 0.00977,0.00624 0.019531,0.00977 0.00244,8.817e-4 0.00625,0.00112 0.00977,0.00195 0.00352,8.353e-4 0.011348,0.00194 0.011719,0.00195 3.71e-4,1.73e-5 0.023164,-0.00188 0.023437,-0.00195 2.734e-4,-7.77e-5 0.029123,-0.017404 0.029297,-0.017578 1.266e-4,-1.272e-4 0.013559,-0.021216 0.013672,-0.021484 1.125e-4,-2.68e-4 0.00324,-0.00896 0.00391,-0.011719 0.00134,-0.00552 0.00163,-0.00859 0.00195,-0.011719 6.551e-4,-0.00625 0.00187,-0.011663 0.00195,-0.017578 1.754e-4,-0.011831 -0.00126,-0.024989 -0.00195,-0.042969 -0.00138,-0.03596 -0.0036,-0.085983 -0.00781,-0.1464844 C 8.8626787,7.121184 8.8488332,6.9561131 8.8320312,6.7773438 8.8152258,6.5985374 8.7970344,6.4267517 8.78125,6.2929688 8.7733578,6.2260773 8.7660538,6.1690541 8.7597656,6.125 8.7534756,6.080946 8.7493926,6.05534 8.7421876,6.03125 8.7353376,6.008354 8.7331976,5.97513 8.6894536,5.951172 8.6675796,5.939193 8.6400526,5.938447 8.6210946,5.943362 Z m 0,0.1542968 c 0.00249,0.013378 0.0041,0.020887 0.00781,0.046875 0.00604,0.042324 0.013674,0.097865 0.021484,0.1640626 0.015621,0.1323948 0.034067,0.3045836 0.050781,0.4824218 0.016718,0.1778765 0.028802,0.3415165 0.037109,0.4609375 0.00185,0.026548 0.0026,0.040654 0.00391,0.0625 -0.011482,-0.00958 -0.018336,-0.014358 -0.03125,-0.025391 C 8.6299244,7.2198525 8.5221666,7.122997 8.4160156,7.0253906 8.3098646,6.9277842 8.2053035,6.8292847 8.1269531,6.7519531 c -0.039175,-0.038666 -0.0721,-0.072029 -0.09375,-0.095703 -0.00127,-0.00139 -7.546e-4,-0.00258 -0.00195,-0.00391 0.016316,-0.018895 0.038595,-0.045535 0.068359,-0.076172 0.062737,-0.064578 0.1498514,-0.1493337 0.2460937,-0.2382813 0.1558805,-0.14407 0.2340024,-0.2108011 0.2753907,-0.2402344 z m -2.1621094,0.019531 c 0.00807,0.00692 0.012468,0.00971 0.021484,0.017578 0.065793,0.057408 0.1549048,0.1391071 0.2519531,0.2304688 L 7.0371094,6.6523438 6.75,6.921875 C 6.6577313,7.009213 6.5626564,7.0973858 6.484375,7.1679688 6.4116568,7.2335355 6.3586235,7.2794794 6.3339844,7.2988281 c 0.00272,-0.044438 0.00768,-0.1024734 0.017578,-0.2070312 0.012511,-0.1321465 0.029761,-0.2970812 0.046875,-0.4570313 0.017114,-0.15995 0.034725,-0.3150232 0.048828,-0.4316406 0.00432,-0.035683 0.00816,-0.058752 0.011719,-0.085938 z m -5.2363282,0.021484 -0.40820308,0.00781 -0.40429687,0.00781 -0.007813,0.3144531 -0.005859,0.3183594 H 0.81054688 1.2226562 V 6.4628906 Z m 12.6367188,0.00195 v 0.3222656 0.3242188 h 0.402344 0.404297 V 6.4628906 6.140625 h -0.404297 z m 0.132813,0.1328125 h 0.269531 0.271484 V 6.4628906 6.6542969 H 14.261719 13.992188 V 6.4628906 Z m -12.9023442,0.00195 v 0.1875 0.1914063 H 0.81054688 0.53125 l 0.003906,-0.1835938 0.003906,-0.1875 0.27734375,-0.00391 z M 7.5292969,6.9199219 7.25,7.1679688 C 7.1210614,7.2838028 6.8889383,7.4978986 6.7324219,7.6445312 l -0.40625,0.3808594 1.1875,0.00195 c 0.2807169,4.38e-4 0.5353579,-0.00139 0.7207031,-0.00391 0.092673,-0.00126 0.1680615,-0.00211 0.2207031,-0.00391 0.026321,-8.971e-4 0.047217,-0.00281 0.0625,-0.00391 0.00764,-5.502e-4 0.012858,-9.754e-4 0.019531,-0.00195 0.00334,-4.889e-4 0.00701,1.11e-5 0.013672,-0.00195 0.00166,-4.911e-4 0.00569,-0.00189 0.00586,-0.00195 1.666e-4,-6.56e-5 0.00965,-0.00579 0.00977,-0.00586 1.114e-4,-6.58e-5 0.017522,-0.013606 0.017578,-0.013672 2.79e-5,-3.31e-5 0.00975,-0.017545 0.00977,-0.017578 1.4e-5,-3.31e-5 -0.060547,-0.025391 -0.060547,-0.025391 h 0.066406 c 0,-6.63e-5 -0.00193,-0.01944 -0.00195,-0.019531 -2.75e-5,-9.14e-5 -0.00385,-0.00965 -0.00391,-0.00977 -1.098e-4,-2.327e-4 -0.00454,-0.00776 -0.00586,-0.00977 -0.00264,-0.00401 -0.00415,-0.00573 -0.00586,-0.00781 -0.00342,-0.00417 -0.00587,-0.00756 -0.00977,-0.011719 -0.0078,-0.00832 -0.018171,-0.0183 -0.03125,-0.03125 C 8.5148572,7.8315213 8.4774089,7.7953662 8.4316406,7.7519531 8.3401041,7.665127 8.2146809,7.5489862 8.0761719,7.421875 Z M 1.2226562,7.0761719 0.8125,7.0878906 0.41015625,7.0996094 0.40234375,7.4199219 0.39648438,7.7441406 H 0.81054688 1.2226562 V 7.4121094 Z m 12.6367188,0.00391 v 0.3320313 0.3320312 h 0.402344 0.404297 V 7.4121094 7.0800781 h -0.404297 z m -6.3320312,0.017578 0.4589843,0.421875 c 0.138063,0.1267019 0.2627652,0.2420446 0.3535157,0.328125 0.01764,0.016732 0.026175,0.026779 0.041016,0.041016 -0.044469,0.00109 -0.085902,0.0011 -0.1484375,0.00195 -0.1843321,0.0025 -0.438578,0.00434 -0.71875,0.00391 L 6.6621094,7.8925781 6.8222656,7.7421875 C 6.9778952,7.5963858 7.2122963,7.3821624 7.3398438,7.2675781 Z m -6.4375,0.1152344 V 7.4121094 7.6132812 H 0.81054688 0.53125 L 0.535156,7.4238281 0.539062,7.2285156 0.81640575,7.2207056 Z m 12.9023442,0 h 0.269531 0.271484 V 7.4121094 7.6132812 H 14.261719 13.992188 V 7.4121094 Z m -7.8886724,1.1796875 -0.027344,0.171875 c -0.011568,0.07191 -0.036017,0.302291 -0.056641,0.5273438 -0.02051,0.2236994 -0.046691,0.4700173 -0.056641,0.5371093 l -0.03125,0.2089844 h 1.609375 1.6074219 L 9.1171875,9.6289062 C 9.1072313,9.5618373 9.0810465,9.3154943 9.0605469,9.0917969 9.0399129,8.8667443 9.0154428,8.6363072 9.0039062,8.5644531 L 8.9765625,8.3925781 H 7.5410156 Z m -0.5019531,0.119137 c -0.00355,5.984e-4 -0.0061,0.00153 -0.00781,0.00195 -0.00343,8.458e-4 -0.00603,0.00282 -0.00977,0.00391 -0.00747,0.00217 -0.016561,0.00382 -0.029297,0.00781 -0.025473,0.00798 -0.062957,0.020058 -0.109375,0.035156 C 5.3524759,8.5907438 5.2209325,8.6349694 5.0625,8.6875 4.745635,8.7925612 4.3233928,8.9335632 3.8984375,9.0761719 3.4734822,9.2187806 3.0453993,9.3617646 2.71875,9.4726562 2.5554254,9.5281021 2.4185039,9.576765 2.3183594,9.6113281 c -0.050072,0.017282 -0.091472,0.030512 -0.1210938,0.041016 -0.029622,0.010503 -0.0437,0.014735 -0.058594,0.021484 -0.00212,9.589e-4 -0.0056,0.00375 -0.00586,0.00391 -2.594e-4,1.538e-4 -0.011541,0.00766 -0.011719,0.00781 -1.779e-4,1.53e-4 -0.011622,0.015473 -0.011719,0.015625 -9.65e-5,1.522e-4 -0.011703,0.029145 -0.011719,0.029297 -1.53e-5,1.514e-4 0.00579,0.033053 0.00586,0.033203 6.56e-5,1.506e-4 0.013526,0.019381 0.013672,0.019531 2.924e-4,2.996e-4 0.018918,0.013376 0.019531,0.013672 0.00123,5.925e-4 0.014529,0.00665 0.019531,0.00781 0.005,0.00116 0.010721,0.00122 0.015625,0.00195 0.019618,0.00295 0.044663,0.00574 0.080078,0.00781 0.07083,0.00415 0.1785883,0.00677 0.3203125,0.00977 0.2834484,0.006 0.7035634,0.010979 1.2285156,0.011719 l 1.7636719,0.00195 0.0625,-0.6542968 c 7.25e-5,-7.509e-4 -7.23e-5,-0.0012 0,-0.00195 v -0.00195 c 0.015595,-0.1618152 0.029789,-0.3099782 0.039063,-0.4179687 0.00468,-0.054496 0.00947,-0.099482 0.011719,-0.1308594 0.00113,-0.015688 0.00152,-0.027749 0.00195,-0.037109 2.184e-4,-0.00468 -1e-6,-0.00754 0,-0.011719 5e-7,-0.00209 3.22e-4,-0.00389 0,-0.00781 -1.61e-4,-0.00196 -0.00192,-0.00959 -0.00195,-0.00977 -1.88e-5,-8.74e-5 -0.00388,-0.011664 -0.00391,-0.011719 0,0 -0.060547,0.025391 -0.060547,0.025391 l 0.044922,-0.048828 c -3.2e-5,-2.91e-5 -0.048694,-0.017584 -0.048828,-0.017578 -1.337e-4,5.3e-6 -0.00604,-2.993e-4 -0.00781,0 z m 3.8691406,0 c -1.338e-4,-5.5e-6 -0.046843,0.017549 -0.046875,0.017578 0,0 0.042969,0.048828 0.042969,0.048828 -2.18e-5,5.51e-5 -0.064435,-0.013759 -0.064453,-0.013672 -3.73e-5,1.747e-4 1.585e-4,0.00781 0,0.00977 -3.172e-4,0.00391 -0.00195,0.00573 -0.00195,0.00781 2.8e-6,0.00416 0.00173,0.00704 0.00195,0.011719 4.381e-4,0.00935 8.261e-4,0.021422 0.00195,0.037109 0.00225,0.031374 0.00509,0.076364 0.00977,0.1308594 0.00936,0.1089915 0.023284,0.2582944 0.039063,0.421875 l 0.0625,0.6542968 1.7656249,-0.00195 c 0.524952,-7.454e-4 0.945068,-0.00572 1.228516,-0.011719 0.141723,-0.003 0.24753,-0.00561 0.318359,-0.00977 0.03542,-0.00208 0.06241,-0.00486 0.08203,-0.00781 h 0.002 l 0.07227,0.033203 -0.0039,-0.099609 c 6.37e-4,-0.00411 0.002,-0.00972 0.002,-0.00977 -1.5e-5,-1.514e-4 -0.0097,-0.029145 -0.0098,-0.029297 -9.6e-5,-1.522e-4 -0.01349,-0.015472 -0.01367,-0.015625 -1.77e-4,-1.53e-4 -0.0095,-0.00766 -0.0098,-0.00781 -2.6e-4,-1.538e-4 -0.0057,-0.00295 -0.0078,-0.00391 l -0.09766,-0.042969 v 0.00781 C 12.819187,9.630046 12.797347,9.622927 12.763717,9.611322 12.663528,9.5767658 12.524652,9.528101 12.361328,9.4726562 12.034681,9.3617667 11.608547,9.2187791 11.183594,9.0761719 10.75864,8.9335647 10.334445,8.7925625 10.017578,8.6875 9.8591449,8.6349688 9.727604,8.5907454 9.6347656,8.5605469 9.5883464,8.5454476 9.552817,8.5333725 9.5273438,8.5253906 c -0.012737,-0.00399 -0.023783,-0.00564 -0.03125,-0.00781 -0.00373,-0.00108 -0.00634,-0.00306 -0.00977,-0.00391 -0.00171,-4.228e-4 -0.00232,-0.00135 -0.00586,-0.00195 -0.00177,-2.992e-4 -0.00963,5.4e-6 -0.00977,0 z m -3.2539062,0.013672 h 1.3242187 1.3222656 l 0.00977,0.058594 c 0.00882,0.054956 0.036135,0.2958736 0.056641,0.5195312 0.02062,0.2250144 0.044877,0.4656768 0.056641,0.5449219 l 0.00781,0.056641 H 7.5410156 6.0859375 l 0.00781,-0.056641 c 0.01175,-0.079228 0.037964,-0.3199095 0.058594,-0.5449219 0.020496,-0.2236574 0.045855,-0.4646272 0.054687,-0.5195312 z M 5.5410156,8.6699219 c -0.00199,0.025173 -0.00293,0.045933 -0.00586,0.080078 -0.0093,0.1082961 -0.023321,0.2586748 -0.039062,0.421875 v 0.00195 l -0.052734,0.53125 -1.6425782,-0.00195 C 3.27635,9.7023858 2.8560521,9.6993249 2.574219,9.6933549 2.539225,9.6926147 2.526801,9.6922149 2.496094,9.6914049 2.578439,9.6632089 2.6533087,9.6364119 2.761719,9.5996079 3.0881321,9.4887978 3.5146104,9.3437428 3.9394531,9.2011719 4.3642959,9.058601 4.7869035,8.9174773 5.1035156,8.8125 5.2618217,8.760011 5.3939544,8.717546 5.4863281,8.6875 5.5098011,8.67987 5.5228791,8.675746 5.5410156,8.6699219 Z m 3.9980469,0 c 0.018138,0.00583 0.031214,0.00994 0.054687,0.017578 0.092376,0.030048 0.2245055,0.072511 0.3828125,0.125 0.316614,0.1049787 0.739221,0.2461024 1.164063,0.3886719 0.424841,0.1425694 0.851323,0.287628 1.177733,0.3984375 0.108406,0.036801 0.185236,0.061649 0.267579,0.089844 -0.03139,8.327e-4 -0.04418,0.00315 -0.08008,0.00391 -0.281833,0.00596 -0.700177,0.00902 -1.224609,0.00977 L 9.6367188,9.7050781 9.5859375,9.171875 C 9.5701959,9.0086762 9.5561727,8.8582978 9.546875,8.75 9.543985,8.716342 9.541035,8.694876 9.539065,8.669922 Z M 6.2636719,10.238281 6.4667969,10.4375 c 0.056117,0.05593 0.2968241,0.272386 0.5507812,0.496094 0.2244569,0.197722 0.3376649,0.29896 0.4160157,0.349609 0.039175,0.02533 0.075798,0.04245 0.1171874,0.03906 0.04139,-0.0034 0.067204,-0.02653 0.085938,-0.04297 0.039534,-0.0347 0.2916441,-0.256785 0.5605468,-0.494141 L 8.8164062,10.238281 H 7.5332031 Z m 0.3222656,0.13086 H 7.5332031 8.4667969 L 8.109375,10.685547 c -0.2688792,0.237334 -0.5200869,0.460341 -0.5585938,0.494141 -0.015788,0.01385 -0.016994,0.0102 -0.011719,0.0098 0.00528,-4.32e-4 -0.00409,0.0012 -0.033203,-0.01758 -0.058229,-0.03764 -0.1760725,-0.138337 -0.4003906,-0.335937 -0.2404389,-0.2118 -0.4611805,-0.410894 -0.5195313,-0.466797 z m 2.484375,0.201171 c -0.020643,0.0076 -0.038771,0.01839 -0.060547,0.0332 -0.087104,0.05925 -0.232898,0.188534 -0.5292968,0.449218 -0.1637005,0.143977 -0.3121571,0.277759 -0.4199219,0.376954 -0.053882,0.0496 -0.096232,0.09109 -0.1269531,0.121093 -0.015361,0.015 -0.027878,0.02712 -0.037109,0.03711 -0.00462,0.005 -0.00953,0.0083 -0.013672,0.01367 -0.00207,0.0027 -0.00282,0.0064 -0.00586,0.01172 -0.00152,0.0027 -0.00575,0.01142 -0.00586,0.01172 -5.38e-5,1.51e-4 -0.00388,0.0096 -0.00391,0.0098 -2.14e-5,1.22e-4 -1.12e-5,0.01944 0,0.01953 1.37e-5,1.17e-4 0.00385,0.01547 0.00391,0.01563 5.57e-5,1.53e-4 0.00381,0.0076 0.00391,0.0078 1.951e-4,3.78e-4 0.00441,0.0077 0.00586,0.0098 0.0029,0.0042 0.00361,0.0072 0.00586,0.0098 0.00449,0.0052 0.00987,0.0098 0.015625,0.01563 0.011513,0.01169 0.02736,0.02658 0.046875,0.04492 0.039029,0.03668 0.094378,0.08731 0.1601562,0.146485 0.1315569,0.118343 0.3064449,0.271992 0.4824219,0.425781 0.175977,0.153789 0.3511755,0.307133 0.4863281,0.421875 0.067576,0.05737 0.1262137,0.104744 0.1679688,0.138672 0.020877,0.01696 0.037567,0.03109 0.050781,0.04102 0.00661,0.005 0.011836,0.008 0.017578,0.01172 0.00287,0.0019 0.00543,0.0036 0.00977,0.0059 0.00217,0.0011 0.00935,0.0037 0.00977,0.0039 4.158e-4,1.57e-4 0.021233,0.0039 0.021484,0.0039 8.837e-4,3.6e-5 0.026539,-0.0036 0.027344,-0.0039 8.046e-4,-3e-4 0.02076,-0.01305 0.021484,-0.01367 7.239e-4,-6.19e-4 0.010379,-0.0089 0.013672,-0.01367 0.00329,-0.0047 0.00591,-0.0096 0.00781,-0.01367 0.0076,-0.01647 0.010477,-0.02785 0.011719,-0.04101 0.00248,-0.02633 -5.109e-4,-0.05458 -0.00586,-0.08594 -0.00238,-0.01403 -0.017784,-0.154645 -0.037109,-0.345703 -0.019326,-0.191058 -0.043594,-0.441843 -0.068359,-0.705078 -0.024803,-0.26367 -0.051277,-0.514672 -0.072266,-0.707031 -0.010494,-0.09618 -0.019656,-0.178927 -0.027344,-0.240235 -0.00769,-0.06131 -0.011003,-0.09493 -0.017578,-0.121093 -0.00319,-0.01269 -0.00694,-0.02698 -0.013672,-0.04297 -0.00673,-0.01599 -0.019156,-0.04001 -0.046875,-0.05274 -0.027719,-0.01272 -0.057482,-0.0076 -0.078125,0 z m -3.1308594,0.002 c -1.604e-4,3.1e-5 -0.015498,0.0058 -0.015625,0.0059 -1.267e-4,6.2e-5 -0.017485,0.01358 -0.017578,0.01367 -2.981e-4,2.98e-4 -0.00952,0.01178 -0.011719,0.01563 -0.00219,0.0038 -0.00476,0.0071 -0.00586,0.0098 -0.0022,0.0053 -0.00271,0.0076 -0.00391,0.01172 -0.00239,0.0083 -0.00385,0.01727 -0.00586,0.02734 -0.00401,0.02015 -0.00897,0.04585 -0.013672,0.07813 -0.0094,0.06455 -0.02109,0.154491 -0.033203,0.259766 -0.024227,0.210548 -0.052157,0.486878 -0.078125,0.761718 -0.025968,0.274841 -0.049481,0.547607 -0.064453,0.751953 -0.00749,0.102174 -0.013267,0.187948 -0.015625,0.248047 -0.00118,0.03005 -5.268e-4,0.05193 0,0.07031 2.635e-4,0.0092 1.944e-4,0.01718 0.00195,0.02734 4.397e-4,0.0025 9.778e-4,0.0062 0.00195,0.0098 9.754e-4,0.0035 0.00564,0.01324 0.00586,0.01367 1.102e-4,2.17e-4 0.00574,0.0096 0.00586,0.0098 1.174e-4,1.52e-4 0.0155,0.01554 0.015625,0.01563 1.247e-4,8.6e-5 0.027212,0.0097 0.027344,0.0098 1.32e-4,2.1e-5 0.031111,-0.0019 0.03125,-0.002 2.839e-4,-9.4e-5 0.0094,-0.0027 0.011719,-0.0039 0.00232,-0.0012 0.00435,-0.003 0.00586,-0.0039 0.00302,-0.0018 0.00538,-0.0022 0.00781,-0.0039 0.00486,-0.0034 0.00962,-0.0071 0.015625,-0.01172 0.012015,-0.0093 0.027693,-0.02335 0.046875,-0.03906 0.038365,-0.03142 0.090715,-0.07486 0.1542969,-0.128906 0.1271637,-0.108099 0.2969597,-0.25533 0.4804687,-0.416016 0.1835395,-0.160712 0.3509673,-0.309651 0.4726563,-0.419922 0.060844,-0.05513 0.1097276,-0.09985 0.1445312,-0.132812 0.017402,-0.01648 0.030831,-0.03061 0.041016,-0.04102 0.00509,-0.0052 0.0096,-0.0089 0.013672,-0.01367 0.00204,-0.0024 0.00505,-0.0058 0.00781,-0.0098 0.00138,-0.002 0.00374,-0.0075 0.00391,-0.0078 8.36e-5,-1.6e-4 0.00386,-0.0077 0.00391,-0.0078 4.74e-5,-1.29e-4 0.0039,-0.01553 0.00391,-0.01563 3.59e-5,-3.16e-4 -0.00185,-0.02301 -0.00195,-0.02344 -1.028e-4,-4.31e-4 -0.00249,-0.01045 -0.00391,-0.01367 -0.00283,-0.0064 -0.00549,-0.01016 -0.00781,-0.01367 -0.00465,-0.007 -0.00861,-0.01166 -0.013672,-0.01758 C 7.1402652,11.57428 7.1273612,11.55925 7.1113272,11.54315 7.0792602,11.51094 7.0341892,11.46959 6.9804679,11.420103 6.8730242,11.321133 6.7301026,11.193832 6.5859366,11.06854 6.4417706,10.943249 6.2966023,10.81962 6.185546,10.728697 6.130018,10.683237 6.0838601,10.647367 6.0488272,10.621275 c -0.017516,-0.01304 -0.032082,-0.02332 -0.044922,-0.03125 -0.00642,-0.004 -0.012427,-0.008 -0.021484,-0.01172 -0.00226,-9.36e-4 -0.00463,-0.0029 -0.00781,-0.0039 -0.00319,-9.69e-4 -0.011265,-0.0019 -0.011719,-0.002 -4.539e-4,-5.9e-5 -0.023117,-6.3e-5 -0.023437,0 z m 3.1425781,0.142578 c 0.00213,0.01261 0.00736,0.0395 0.013672,0.08984 0.00754,0.06013 0.016898,0.140595 0.027344,0.236328 0.020891,0.191466 0.045565,0.442 0.070312,0.705078 0.024792,0.263514 0.048991,0.5136 0.068359,0.705078 0.01681,0.166186 0.02599,0.25521 0.033203,0.308594 -0.037295,-0.03074 -0.077209,-0.06383 -0.1308594,-0.109375 C 9.0297001,12.536319 8.8533514,12.383943 8.6777344,12.230469 8.5021174,12.076994 8.3280478,11.922334 8.1972656,11.804688 8.1318746,11.745864 8.0767641,11.695584 8.0390625,11.660156 c -0.00658,-0.0062 -0.010104,-0.0084 -0.015625,-0.01367 8.526e-4,-8.35e-4 0.00108,-0.0011 0.00195,-0.002 0.028999,-0.02832 0.071666,-0.0681 0.125,-0.117187 0.1066685,-0.09818 0.2548912,-0.231572 0.4179688,-0.375 0.2951855,-0.259617 0.4451343,-0.390644 0.5136718,-0.4375 z m -3.0859374,0.0332 c 0.02979,0.0229 0.061991,0.04839 0.1054687,0.08398 0.1093845,0.08955 0.2550037,0.211283 0.3984375,0.335938 0.1434338,0.124655 0.2847159,0.252052 0.390625,0.349609 0.052955,0.04878 0.097419,0.08948 0.1269531,0.119141 0.00296,0.003 0.00319,0.0051 0.00586,0.0078 -0.00386,0.0037 -0.00536,0.0056 -0.00977,0.0098 -0.033502,0.03173 -0.082148,0.0761 -0.1425781,0.130859 -0.120861,0.10952 -0.2876347,0.257669 -0.4707032,0.417969 -0.183099,0.160326 -0.3540284,0.306579 -0.4804687,0.414063 -0.045635,0.03879 -0.076673,0.06656 -0.109375,0.09375 0.00273,-0.05398 0.00579,-0.112429 0.011719,-0.19336 0.014858,-0.202786 0.03855,-0.475844 0.064453,-0.75 0.025903,-0.274156 0.054065,-0.548716 0.078125,-0.757812 0.01203,-0.104549 0.022207,-0.193772 0.03125,-0.25586 3.572e-4,-0.0025 -3.515e-4,-0.0035 0,-0.0059 z m -5.59960942,0.05664 0.007813,0.326171 c 0.001968,0.07083 0.004245,0.135183 0.005859,0.183594 8.0704e-4,0.02421 0.001373,0.0442 0.001953,0.05859 2.9e-4,0.0072 0.001722,0.01311 0.001953,0.01758 1.1554e-4,0.0022 -1.3064e-4,0.004 0,0.0059 2.613e-5,3.74e-4 -8.81e-5,0.0012 0,0.002 l 0.13085938,-0.01758 c 8.218e-5,2.01e-4 4.9e-7,0.002 0,0.002 l -0.13085938,0.01563 c 3.5241e-4,0.0031 -4.726e-5,0.0076 0,0.0078 7.4e-6,3.9e-5 0.0116929,0.02535 0.0117188,0.02539 2.584e-5,3.9e-5 0.009721,0.01168 0.009766,0.01172 8.831e-5,7.8e-5 0.0154641,0.01164 0.015625,0.01172 3.2183e-4,1.54e-4 0.0106499,0.0032 0.0136719,0.0039 0.006044,0.0015 0.009996,0.0015 0.0136719,0.002 0.007351,9.31e-4 0.0159943,0.0014 0.0253906,0.002 0.0187926,0.0012 0.0430843,0.0031 0.0742188,0.0039 0.0622688,0.0016 0.14710166,0.002 0.24023438,0.002 H 1.2226562 V 11.136719 10.804688 H 0.81054688 Z m 13.46289062,0 v 0.332031 0.332031 h 0.402344 0.404297 V 11.136719 10.804688 H 14.261719 Z M 0.53125,10.9375 H 0.81054688 1.0898438 v 0.199219 0.201172 H 0.81835938 c -0.0922048,0 -0.17581843,-0.0023 -0.23632813,-0.0039 -0.0168186,-4.38e-4 -0.0263002,-0.0014 -0.0390625,-0.002 -2.7367e-4,-0.0078 3.0349e-4,-0.01238 0,-0.02148 -0.001602,-0.04805 -0.003897,-0.112972 -0.005859,-0.183594 z m 13.460938,0 h 0.269531 0.271484 v 0.199219 0.201172 h -0.271484 -0.269531 v -0.201172 z m -13.56835988,0.824219 -0.0136719,0.314453 c -0.003297,0.07024 -0.004469,0.137449 -0.003906,0.1875 2.8159e-4,0.02503 5.7052e-4,0.04532 0.001953,0.0625 6.9131e-4,0.0086 4.3249e-4,0.01525 0.001953,0.02344 7.6032e-4,0.0041 0.001912,0.0097 0.003906,0.01563 9.9718e-4,0.003 0.005619,0.0093 0.005859,0.0098 2.4078e-4,4.68e-4 0.0114647,0.01732 0.0117187,0.01758 v 0.002 c 2.5402e-4,2.48e-4 0.020946,0.01147 0.0214844,0.01172 5.3843e-4,2.45e-4 0.006945,0.0031 0.009766,0.0039 0.005642,0.0017 0.009448,0.0032 0.0136719,0.0039 0.008447,0.0015 0.0170597,0.0029 0.0273438,0.0039 0.020568,0.0019 0.0480629,0.0025 0.0800781,0.0039 0.0640304,0.0027 0.14837906,0.0059 0.24023437,0.0059 H 1.2226562 V 12.095703 11.761719 H 0.82226562 Z m 13.43554688,0 v 0.333984 0.332031 h 0.402344 0.404297 V 12.095703 11.761719 H 14.261719 Z M 0.55078125,11.894531 H 0.82226562 1.0898438 v 0.201172 0.199219 H 0.82421875 c -0.0902318,0 -0.17303376,-0.0013 -0.234375,-0.0039 -0.0223686,-9.51e-4 -0.037403,-0.0028 -0.0527344,-0.0039 -3.1841e-4,-0.0089 1.2544e-4,-0.01424 0,-0.02539 -5.2182e-4,-0.04637 7.1321e-4,-0.109705 0.003906,-0.177735 z m 13.44140675,0 h 0.269531 0.271484 v 0.201172 0.199219 h -0.271484 -0.269531 v -0.199219 z m -6.4550786,0.05078 c -1.466e-4,-1e-6 -0.013483,0.0019 -0.013672,0.002 -3.775e-4,7.2e-5 -0.010547,0.0026 -0.013672,0.0039 -0.00625,0.0025 -0.0084,0.0059 -0.011719,0.0078 -0.00664,0.0039 -0.012728,0.0069 -0.019531,0.01172 -0.013607,0.0097 -0.031532,0.02227 -0.052734,0.03906 -0.042404,0.03358 -0.099054,0.08102 -0.1679687,0.138672 -0.1378303,0.115294 -0.3199886,0.271734 -0.5,0.427734 -0.1800114,0.155999 -0.3577071,0.312903 -0.4921875,0.433594 -0.06724,0.06034 -0.1242444,0.110766 -0.1640625,0.148437 -0.019909,0.01884 -0.035062,0.03459 -0.046875,0.04687 -0.00591,0.0061 -0.010858,0.01173 -0.015625,0.01758 -0.00238,0.0029 -0.00468,0.0048 -0.00781,0.0098 -0.00157,0.0025 -0.00569,0.01131 -0.00586,0.01172 -8.63e-5,2.02e-4 -0.00386,0.0096 -0.00391,0.0098 -4.33e-5,1.66e-4 -0.00195,0.0155 -0.00195,0.01563 0,0 0.013652,0.03904 0.013672,0.03906 1.97e-5,2.7e-5 0.015586,0.0156 0.015625,0.01563 7.87e-5,5.4e-5 0.015468,0.0097 0.015625,0.0098 3.138e-4,1.09e-4 0.00927,0.0015 0.011719,0.002 0.0049,8.49e-4 0.00831,0.0017 0.011719,0.002 0.00682,5.89e-4 0.0153,0.0015 0.025391,0.002 0.020182,8.65e-4 0.047259,0.0012 0.083984,0.002 0.073451,0.0015 0.1802088,0.0028 0.3105469,0.0039 0.2606762,0.0023 0.6204058,0.0039 1.015625,0.0039 0.3952485,0 0.7529462,-0.0012 1.0136719,-0.0039 0.1303628,-0.0013 0.2370161,-0.0041 0.3105468,-0.0059 0.036765,-8.91e-4 0.065605,-9.39e-4 0.085938,-0.002 0.010166,-5.07e-4 0.01828,-0.0012 0.025391,-0.002 0.00356,-3.57e-4 0.0063,-8.67e-4 0.011719,-0.002 0.00271,-5.43e-4 0.013358,-0.0038 0.013672,-0.0039 1.569e-4,-6.3e-5 0.015546,-0.0097 0.015625,-0.0098 3.93e-5,-3.1e-5 0.015605,-0.01755 0.015625,-0.01758 1.97e-5,-3.1e-5 -0.056641,-0.03516 -0.056641,-0.03516 h 0.066406 c 0,-7.7e-5 -0.00386,-0.02332 -0.00391,-0.02344 -4.21e-5,-1.14e-4 -0.00382,-0.0077 -0.00391,-0.0078 -1.674e-4,-3e-4 -0.00444,-0.0079 -0.00586,-0.0098 -0.00284,-0.0038 -0.00574,-0.0055 -0.00781,-0.0078 -0.00415,-0.0046 -0.00815,-0.01015 -0.013672,-0.01563 -0.011046,-0.01094 -0.02573,-0.02507 -0.044922,-0.04297 -0.038382,-0.03588 -0.092945,-0.08377 -0.1581999,-0.14266 C 8.6565989,12.899794 8.4820263,12.742839 8.3066406,12.587891 8.131255,12.432942 7.9556874,12.279228 7.8203125,12.162109 7.752625,12.10355 7.6943588,12.054771 7.6523438,12.019531 c -0.021008,-0.01762 -0.037684,-0.03255 -0.050781,-0.04297 -0.00655,-0.0052 -0.012525,-0.01 -0.017578,-0.01367 -0.00253,-0.0018 -0.00487,-0.002 -0.00781,-0.0039 -0.00147,-9.47e-4 -0.00366,-0.0027 -0.00586,-0.0039 -0.0022,-0.0012 -0.00946,-0.0038 -0.00977,-0.0039 -1.041e-4,-3.9e-5 -0.023291,-0.0059 -0.023437,-0.0059 z m -0.00195,0.148438 c 0.00989,0.0081 0.019359,0.01573 0.033203,0.02734 0.04105,0.03443 0.096657,0.08231 0.1640625,0.140625 0.1348111,0.116631 0.3112047,0.271064 0.4863281,0.425781 0.1751234,0.154717 0.3505322,0.310468 0.4804688,0.427734 0.042047,0.03795 0.070233,0.06307 0.1015624,0.0918 -0.070035,0.0015 -0.1518656,0.0047 -0.2636718,0.0059 -0.2600377,0.0027 -0.6187973,0.0039 -1.0136719,0.0039 -0.3949038,0 -0.755539,-0.0016 -1.015625,-0.0039 -0.1126515,-9.9e-4 -0.1953661,-0.0026 -0.265625,-0.0039 0.033488,-0.03093 0.064968,-0.05996 0.1113281,-0.101562 0.1335434,-0.11985 0.3126139,-0.276021 0.4921875,-0.431641 0.1795737,-0.15562 0.3592404,-0.311303 0.4960938,-0.425781 0.068427,-0.05724 0.1253899,-0.104547 0.1660156,-0.136719 0.011646,-0.0092 0.018754,-0.01301 0.027344,-0.01953 z m 0.00586,1.619141 c -0.3515414,0 -0.6724353,0.003 -0.9042968,0.0078 -0.1159308,0.0024 -0.209554,0.0065 -0.2753907,0.0098 -0.032918,0.0016 -0.05888,0.0019 -0.078125,0.0039 -0.00962,9.79e-4 -0.016726,0.0021 -0.025391,0.0039 -0.00433,8.93e-4 -0.016496,0.0054 -0.017578,0.0059 -5.409e-4,2.26e-4 -0.017313,0.01149 -0.017578,0.01172 -1.326e-4,1.14e-4 -0.015562,0.01746 -0.015625,0.01758 -6.31e-5,1.14e-4 -0.00782,0.03699 -0.00781,0.03711 1.48e-5,2.54e-4 0.00569,0.02504 0.00586,0.02539 1.656e-4,3.54e-4 0.00406,0.0072 0.00586,0.0098 0.0036,0.0052 0.00721,0.009 0.00977,0.01172 0.0051,0.0055 0.010081,0.0088 0.015625,0.01367 0.011088,0.0097 0.025255,0.02141 0.042969,0.03516 0.035428,0.02749 0.083439,0.06461 0.1425781,0.107422 0.118278,0.08562 0.2753603,0.195386 0.4335938,0.304687 0.1582334,0.109302 0.3174098,0.216489 0.4394531,0.296875 0.061022,0.04019 0.1140241,0.0742 0.1523437,0.09766 0.01916,0.01173 0.033851,0.02039 0.046875,0.02734 0.00651,0.0035 0.012663,0.0069 0.019531,0.0098 0.00343,0.0014 0.00766,0.0024 0.013672,0.0039 0.003,7.66e-4 0.011323,0.0019 0.011719,0.002 3.658e-4,3.2e-5 0.020081,-0.0016 0.023437,-0.002 1.95e-4,-5.4e-5 0.0078,-0.003 0.00977,-0.0039 0.00197,-8.8e-4 0.00464,-0.0013 0.00586,-0.002 0.00244,-0.0013 0.00385,-7.93e-4 0.00586,-0.002 0.00402,-0.0023 0.00841,-0.0065 0.013672,-0.0098 0.010517,-0.0066 0.02363,-0.01406 0.041016,-0.02539 0.034772,-0.02266 0.083913,-0.05645 0.1425781,-0.0957 0.1173301,-0.07851 0.2757335,-0.18558 0.4472656,-0.302734 0.1718056,-0.11734 0.3274576,-0.226095 0.4414063,-0.308594 0.056974,-0.04125 0.1037709,-0.07589 0.1367187,-0.101562 0.016474,-0.01284 0.028778,-0.02415 0.039063,-0.0332 0.00514,-0.0045 0.010757,-0.0084 0.015625,-0.01367 0.00243,-0.0026 0.00429,-0.0046 0.00781,-0.0098 0.00176,-0.0026 0.00571,-0.0114 0.00586,-0.01172 1.484e-4,-3.2e-4 0.0078,-0.02321 0.00781,-0.02344 6.3e-6,-1.14e-4 -0.0097,-0.037 -0.00977,-0.03711 -6.37e-5,-1.14e-4 -0.013539,-0.01747 -0.013672,-0.01758 -2.663e-4,-2.27e-4 -0.018989,-0.01149 -0.019531,-0.01172 -0.00108,-4.52e-4 -0.013249,-0.005 -0.017578,-0.0059 -0.00866,-0.0018 -0.015766,-0.0029 -0.025391,-0.0039 -0.01925,-0.002 -0.045199,-0.0023 -0.078125,-0.0039 -0.065852,-0.0032 -0.1594459,-0.0073 -0.2753906,-0.0098 -0.2318895,-0.0048 -0.5508025,-0.0078 -0.9023438,-0.0078 z m 0,0.132812 c 0.3507897,0 0.6698971,0.003 0.9003906,0.0078 0.0854,0.0018 0.1430774,0.0037 0.2011719,0.0059 -0.017887,0.0132 -0.027702,0.02181 -0.048828,0.03711 -0.1124936,0.08145 -0.2684827,0.189871 -0.4394531,0.306641 -0.1712449,0.116957 -0.330454,0.22457 -0.4472657,0.302734 -0.058406,0.03908 -0.1066775,0.07163 -0.140625,0.09375 -0.010858,0.0071 -0.017619,0.01067 -0.025391,0.01563 -0.00788,-0.0045 -0.014278,-0.0088 -0.025391,-0.01563 -0.03596,-0.02201 -0.086129,-0.05399 -0.1464844,-0.09375 -0.12071,-0.07951 -0.2798724,-0.187991 -0.4375,-0.296875 C 6.7740131,14.100101 6.6169819,13.990932 6.5,13.90625 6.474004,13.88743 6.459115,13.87536 6.4375,13.85938 c 0.058346,-0.0022 0.1169077,-0.0041 0.203125,-0.0059 0.230465,-0.0048 0.5496001,-0.0078 0.9003906,-0.0078 z M 9.5625,13.914062 c -6.036e-4,-1.5e-5 -0.010128,0.0015 -0.013672,0.002 -0.00354,5.02e-4 -0.00514,0.0013 -0.00781,0.002 -0.010703,0.0026 -0.019057,0.0061 -0.027344,0.0098 -0.016574,0.0074 -0.035563,0.01624 -0.058594,0.0293 -0.046061,0.02612 -0.106617,0.06463 -0.1796875,0.111328 -0.146141,0.0934 -0.3380743,0.221319 -0.5273437,0.351563 -0.1892695,0.130243 -0.3754781,0.263579 -0.515625,0.367187 -0.070073,0.05181 -0.1285752,0.09489 -0.1699219,0.128907 -0.020673,0.01701 -0.037811,0.03202 -0.050781,0.04492 -0.00649,0.0064 -0.011396,0.01096 -0.017578,0.01953 -0.00309,0.0043 -0.00613,0.01062 -0.00977,0.01953 -0.00182,0.0045 -0.0058,0.0171 -0.00586,0.01758 -6.32e-5,4.82e-4 0.00379,0.03089 0.00391,0.03125 4.65e-5,1.4e-4 0.00574,0.01348 0.00586,0.01367 1.204e-4,1.9e-4 0.00452,0.0062 0.00586,0.0078 0.00267,0.0033 0.00413,0.0041 0.00586,0.0059 0.00345,0.0035 0.00653,0.007 0.00977,0.0098 0.00647,0.0055 0.013719,0.01198 0.023437,0.01953 0.019436,0.0151 0.047844,0.03546 0.082031,0.06055 0.068375,0.05017 0.1638599,0.119132 0.2792968,0.201172 0.2308739,0.164078 0.5369882,0.378354 0.84375,0.591796 0.3067619,0.213443 0.6142805,0.424447 0.8457033,0.582032 0.115712,0.07879 0.212421,0.144158 0.28125,0.189453 0.03442,0.02265 0.06216,0.0405 0.08203,0.05273 0.0099,0.0061 0.01807,0.01169 0.02539,0.01563 0.0037,0.002 0.006,0.0035 0.01172,0.0059 0.0029,0.0012 0.01325,0.0038 0.01367,0.0039 2.09e-4,4e-5 0.01939,0.002 0.01953,0.002 1.38e-4,-1.1e-5 0.04095,-0.01947 0.04102,-0.01953 0,0 0.01561,-0.02535 0.01563,-0.02539 1.4e-5,-3.9e-5 0.0039,-0.01361 0.0039,-0.01367 1.6e-5,-1.16e-4 10e-6,-0.01153 0,-0.01172 -1.9e-5,-3.79e-4 -0.0016,-0.0076 -0.002,-0.0098 -7.81e-4,-0.0044 -0.0011,-0.0084 -0.002,-0.01172 -0.0017,-0.0066 -0.0029,-0.01359 -0.0059,-0.02344 -0.0059,-0.0197 -0.01602,-0.0486 -0.02734,-0.08398 -0.02265,-0.07076 -0.05431,-0.170491 -0.0957,-0.294922 C 10.3624,16.067786 10.247224,15.726465 10.119019,15.351804 9.990923,14.976866 9.8705368,14.633143 9.78125,14.380859 9.7366066,14.254718 9.6988314,14.151168 9.671875,14.078125 c -0.013478,-0.03652 -0.022987,-0.06697 -0.03125,-0.08789 -0.00413,-0.01046 -0.00865,-0.0184 -0.011719,-0.02539 -0.00154,-0.0035 -0.00212,-0.0063 -0.00391,-0.0098 -8.932e-4,-0.0018 -0.00239,-0.0033 -0.00391,-0.0059 -0.00151,-0.0025 -0.00759,-0.01148 -0.00781,-0.01172 -2.503e-4,-2.73e-4 -0.028868,-0.01939 -0.029297,-0.01953 -4.284e-4,-1.43e-4 -0.020881,-0.0039 -0.021484,-0.0039 z m -4.0410156,0.002 c -5.673e-4,-2.1e-5 -0.021093,0.0018 -0.021484,0.002 -1.959e-4,5.2e-5 -0.01352,0.0058 -0.013672,0.0059 -1.515e-4,8.4e-5 -0.017471,0.01356 -0.017578,0.01367 -9.54e-5,1.04e-4 -0.00769,0.0076 -0.00781,0.0078 -1.23e-4,1.85e-4 -0.00124,0.0046 -0.00195,0.0059 -0.00143,0.0025 -0.00309,0.0042 -0.00391,0.0059 -0.00164,0.0034 -0.00242,0.0062 -0.00391,0.0098 -0.00298,0.0071 -0.00555,0.01443 -0.00977,0.02539 -0.00844,0.02191 -0.021175,0.05344 -0.035156,0.0918 -0.027963,0.07671 -0.065889,0.183854 -0.1113281,0.3125 -0.090879,0.257292 -0.2100779,0.598075 -0.328125,0.939454 -0.1180471,0.341378 -0.2344444,0.68387 -0.3222657,0.943359 -0.043911,0.129744 -0.081765,0.238052 -0.1074218,0.316406 -0.012829,0.03918 -0.022251,0.07089 -0.029297,0.09375 -0.00352,0.01143 -0.00573,0.02176 -0.00781,0.0293 -0.00104,0.0038 -0.00309,0.0062 -0.00391,0.0098 -4.08e-4,0.0018 4.249e-4,0.0034 0,0.0059 -4.25e-4,0.0025 -0.00195,0.01333 -0.00195,0.01367 0,7.03e-4 0.00375,0.01701 0.00391,0.01758 1.52e-4,5.69e-4 0.00947,0.02105 0.00977,0.02148 2.966e-4,4.38e-4 0.017145,0.01922 0.017578,0.01953 4.335e-4,3.07e-4 0.018968,0.0096 0.019531,0.0098 5.628e-4,1.81e-4 0.010681,0.0016 0.015625,0.002 0.00494,3.99e-4 0.0098,3.28e-4 0.013672,0 0.00774,-6.56e-4 0.014134,-0.0023 0.019531,-0.0039 0.020959,-0.0064 0.034982,-0.01526 0.050781,-0.02734 -0.00325,0.0025 0.043357,-0.03215 0.109375,-0.07813 0.066018,-0.04598 0.1589989,-0.109547 0.2714844,-0.1875 0.2249711,-0.155905 0.530186,-0.366532 0.859375,-0.59375 0.3294521,-0.227399 0.6282986,-0.436676 0.8457032,-0.591796 0.1087022,-0.07756 0.1963414,-0.141703 0.2578124,-0.1875 0.030736,-0.0229 0.055047,-0.04086 0.072266,-0.05469 0.00861,-0.0069 0.015366,-0.01196 0.021484,-0.01758 0.00306,-0.0028 0.00587,-0.0073 0.00977,-0.01172 0.00195,-0.0022 0.00755,-0.0093 0.00781,-0.0098 1.307e-4,-2.1e-4 0.00579,-0.0096 0.00586,-0.0098 6.55e-5,-1.65e-4 0.00391,-0.02527 0.00391,-0.02539 0,-3.77e-4 -0.00372,-0.02294 -0.00391,-0.02344 -1.817e-4,-4.95e-4 -0.004,-0.01053 -0.00586,-0.01367 -0.00371,-0.0063 -0.00681,-0.01019 -0.00977,-0.01367 -0.00592,-0.007 -0.010947,-0.01148 -0.017578,-0.01758 -0.013262,-0.0122 -0.031509,-0.02621 -0.052734,-0.04297 C 6.97708,14.874678 6.9185717,14.830519 6.8476562,14.779297 6.7058254,14.676852 6.5176502,14.544801 6.328125,14.416016 6.1385998,14.28723 5.948043,14.161029 5.8027344,14.068359 c -0.072654,-0.04633 -0.1344035,-0.0833 -0.1796875,-0.109375 -0.022642,-0.01304 -0.040875,-0.02387 -0.056641,-0.03125 -0.00788,-0.0037 -0.013679,-0.0069 -0.023437,-0.0098 -0.00244,-7.1e-4 -0.00652,-0.0013 -0.00977,-0.002 -0.00325,-6.3e-4 -0.011151,2e-5 -0.011719,0 z m 4.0078125,0.152343 c 0.0063,0.0165 0.010919,0.03135 0.019531,0.05469 0.026582,0.07203 0.062892,0.174961 0.1074219,0.300781 0.089059,0.25164 0.207845,0.594419 0.3359375,0.96875 0.1281057,0.374367 0.2435547,0.716519 0.3261717,0.964844 0.0331,0.09948 0.05686,0.170707 0.07813,0.236328 -0.0648,-0.04301 -0.139787,-0.09309 -0.238281,-0.160156 C 9.9273925,16.276426 9.6209418,16.062862 9.3144531,15.849609 9.0079644,15.636357 8.7009871,15.421472 8.4707031,15.257812 8.3555612,15.175983 8.2607067,15.10801 8.1933594,15.058594 c -0.021686,-0.01591 -0.035494,-0.02557 -0.050781,-0.03711 0.0018,-0.0015 0.00201,-0.0023 0.00391,-0.0039 0.037971,-0.03124 0.094981,-0.07393 0.1640625,-0.125 0.1381624,-0.102142 0.3253318,-0.233677 0.5136719,-0.363281 0.18834,-0.129604 0.377444,-0.257556 0.5214843,-0.349609 0.07202,-0.04603 0.1336201,-0.08351 0.1757813,-0.107422 0.00351,-0.002 0.00455,-0.0021 0.00781,-0.0039 z m -3.9765625,0.0039 c 0.00166,9.45e-4 0.00219,9.64e-4 0.00391,0.002 0.041944,0.02415 0.1040274,0.05971 0.1757813,0.105469 0.1435077,0.09152 0.332755,0.217458 0.5214843,0.345703 0.1887294,0.128244 0.3754734,0.260096 0.515625,0.361328 0.070076,0.05062 0.1283175,0.09369 0.1679688,0.125 0.00281,0.0022 0.00324,0.0038 0.00586,0.0059 -0.011177,0.0085 -0.018651,0.01455 -0.033203,0.02539 -0.060115,0.04479 -0.1475771,0.108286 -0.2558593,0.185547 -0.2165645,0.154521 -0.5167192,0.362767 -0.8457031,0.589843 -0.329247,0.227258 -0.6323523,0.437777 -0.8574219,0.59375 -0.1125348,0.07799 -0.2053161,0.143372 -0.2714844,0.189453 -0.00332,0.0023 -0.00271,0.0017 -0.00586,0.0039 0.024828,-0.07539 0.056195,-0.166467 0.095703,-0.283203 0.087669,-0.259038 0.2042905,-0.602189 0.3222657,-0.94336 0.1179751,-0.341171 0.2374063,-0.680661 0.328125,-0.9375 0.045359,-0.128419 0.083653,-0.236581 0.1113281,-0.3125 0.00892,-0.02448 0.014938,-0.03916 0.021484,-0.05664 z M 7.5390625,15.255859 6.234375,16.15625 c -0.3487454,0.240678 -0.6707753,0.465119 -0.9101562,0.632812 -0.1196905,0.08385 -0.2201538,0.154527 -0.2910157,0.205079 -0.035431,0.02528 -0.06322,0.04531 -0.083984,0.06055 -0.020765,0.01524 -0.028382,0.01928 -0.042969,0.0332 -0.00281,0.0027 -0.00469,0.0056 -0.00781,0.0098 -0.00312,0.0041 -0.0095,0.015 -0.00977,0.01563 -2.673e-4,6.3e-4 -0.00582,0.02283 -0.00586,0.02344 -3.64e-5,6.13e-4 0.0037,0.02675 0.00391,0.02734 2.057e-4,5.97e-4 0.01126,0.0209 0.011719,0.02148 4.591e-4,5.8e-4 0.00956,0.01047 0.013672,0.01367 0.00822,0.0064 0.015215,0.0091 0.021484,0.01172 0.025078,0.01037 0.045825,0.01206 0.080078,0.01562 0.068506,0.0071 0.1816144,0.01207 0.3671875,0.01563 0.3711462,0.0071 1.0291215,0.0098 2.1601562,0.0098 1.1307598,0 1.7889439,-0.0027 2.1601563,-0.0098 0.1856061,-0.0036 0.2986459,-0.0085 0.3671869,-0.01563 0.03427,-0.0036 0.05502,-0.0053 0.08008,-0.01562 0.0063,-0.0026 0.01326,-0.0053 0.02148,-0.01172 0.0041,-0.0032 0.01126,-0.01309 0.01172,-0.01367 4.6e-4,-5.8e-4 0.01151,-0.02089 0.01172,-0.02148 2.07e-4,-5.95e-4 0.0039,-0.02673 0.0039,-0.02734 -3.6e-5,-6.13e-4 -0.0056,-0.02281 -0.0059,-0.02344 -2.66e-4,-6.29e-4 -0.0047,-0.01148 -0.0078,-0.01563 -0.0031,-0.0041 -0.007,-0.0071 -0.0098,-0.0098 -0.01458,-0.0139 -0.02219,-0.01797 -0.04297,-0.0332 -0.02077,-0.01524 -0.04854,-0.03527 -0.08398,-0.06055 C 9.9759795,16.943592 9.8775619,16.872909 9.7578125,16.789062 9.5183137,16.621369 9.1946303,16.396934 8.8457031,16.15625 Z m 0,0.160157 1.2324219,0.849609 c 0.3487088,0.240533 0.6710245,0.465376 0.9101562,0.632813 0.1181042,0.08269 0.2149863,0.151159 0.2851563,0.201171 -0.065303,0.0042 -0.1305492,0.0071 -0.2695313,0.0098 -0.368633,0.0071 -1.0256288,0.0098 -2.15625,0.0098 -1.1308963,0 -1.7896386,-0.0027 -2.1582031,-0.0098 -0.1387075,-0.0027 -0.202312,-0.0056 -0.2675781,-0.0098 0.070135,-0.05001 0.1651632,-0.118481 0.2832031,-0.201171 0.2390135,-0.167436 0.5616287,-0.392286 0.9101563,-0.632813 z m -2.828125,2.207031 -0.5332031,0.01172 -0.2578125,0.751953 c -0.1338778,0.390199 -0.3609951,1.051757 -0.5039063,1.46875 -0.071655,0.209079 -0.1307634,0.393561 -0.1699218,0.523437 -0.019579,0.06494 -0.034608,0.114927 -0.042969,0.150391 -0.00418,0.01773 -0.0067,0.03109 -0.00781,0.04687 -2.789e-4,0.0039 -5.715e-4,0.0071 0,0.01367 2.858e-4,0.0033 0.00185,0.01132 0.00195,0.01172 1.053e-4,4.03e-4 0.0096,0.02124 0.00977,0.02148 8.1e-5,1.21e-4 0.011624,0.01359 0.011719,0.01367 9.53e-5,8e-5 0.021375,0.01168 0.021484,0.01172 1.096e-4,3.9e-5 0.023313,0.0059 0.023437,0.0059 1.241e-4,-1e-6 0.019393,-0.0039 0.019531,-0.0039 2.773e-4,-8.5e-5 0.021149,-0.0095 0.021484,-0.0098 3.357e-4,-2.51e-4 0.00551,-0.0073 0.00781,-0.0098 0.008,-0.0085 0.010411,-0.01053 0.015625,-0.01758 0.00521,-0.007 0.01158,-0.01615 0.019531,-0.02734 0.015903,-0.02239 0.037651,-0.05304 0.064453,-0.0918 0.053605,-0.07752 0.1270234,-0.186367 0.2167968,-0.31836 0.1795469,-0.263984 0.4219634,-0.620838 0.6816407,-1.007812 l 0.011719,-0.01758 c 0.2542967,-0.379042 0.4860659,-0.729774 0.6542969,-0.984375 0.085619,-0.129576 0.1549751,-0.234212 0.203125,-0.308594 0.024075,-0.03719 0.043636,-0.06705 0.056641,-0.08789 0.0065,-0.01042 0.011748,-0.01873 0.015625,-0.02539 0.00194,-0.0033 0.00408,-0.0063 0.00586,-0.0098 8.888e-4,-0.0017 6.058e-4,-0.0026 0.00195,-0.0059 6.737e-4,-0.0016 0.0019,-0.0076 0.00195,-0.0078 5.17e-5,-1.71e-4 0.00391,-0.01944 0.00391,-0.01953 0,-1.88e-4 -0.00966,-0.03302 -0.00977,-0.0332 -1.063e-4,-1.85e-4 -0.013461,-0.0174 -0.013672,-0.01758 -2.113e-4,-1.82e-4 -0.011404,-0.0076 -0.011719,-0.0078 -3.151e-4,-1.78e-4 -0.00549,-0.0029 -0.00781,-0.0039 -0.0093,-0.0039 -0.013962,-0.0048 -0.019531,-0.0059 -0.011138,-0.0022 -0.023494,-0.0047 -0.037109,-0.0059 -0.02723,-0.0023 -0.062559,-0.0028 -0.1074218,-0.0039 -0.089726,-0.0022 -0.21299,-0.0027 -0.3476563,0 z m 5.3125005,0 c -0.044796,9.29e-4 -0.082361,0.0018 -0.1093755,0.0039 -0.013507,10e-4 -0.02438,0.002 -0.035156,0.0039 -0.00539,9.64e-4 -0.00867,5.16e-4 -0.017578,0.0039 -0.00223,8.47e-4 -0.0075,0.0037 -0.00781,0.0039 -3.15e-4,1.62e-4 -0.011507,0.0076 -0.011719,0.0078 -2.113e-4,1.66e-4 -0.015519,0.01741 -0.015625,0.01758 -1.063e-4,1.69e-4 -0.011719,0.03498 -0.011719,0.03516 0,1.29e-4 0.00385,0.01736 0.00391,0.01758 5.9e-5,2.17e-4 0.00126,0.006 0.00195,0.0078 0.00138,0.0036 0.00292,0.0058 0.00391,0.0078 0.00198,0.004 0.00365,0.0079 0.00586,0.01172 0.00441,0.0077 0.010239,0.01743 0.017578,0.0293 0.014679,0.02373 0.035788,0.05632 0.0625,0.09766 0.053425,0.08266 0.1293695,0.19789 0.2207025,0.335937 0.182668,0.276096 0.425558,0.640117 0.669922,1.003907 0.244364,0.363789 0.49032,0.728055 0.675781,1 0.09273,0.135972 0.169072,0.248573 0.22461,0.328124 0.02777,0.03978 0.05042,0.07183 0.06641,0.09375 0.008,0.01096 0.01416,0.0186 0.01953,0.02539 0.0027,0.0034 0.0045,0.0062 0.0078,0.0098 0.0016,0.0018 0.0074,0.0075 0.0078,0.0078 2.04e-4,1.75e-4 0.0096,0.0058 0.0098,0.0059 1.46e-4,8.8e-5 0.03507,0.0098 0.03516,0.0098 0,0 0,-0.06641 0,-0.06641 0,0 0.06053,0.02737 0.06055,0.02734 1.4e-5,-3.1e-5 0.0039,-0.01168 0.0039,-0.01172 4e-5,-1.65e-4 0.002,-0.0192 0.002,-0.01953 -3.2e-5,-6.55e-4 -0.0014,-0.0089 -0.002,-0.01172 -0.0011,-0.0056 -0.0023,-0.0098 -0.0039,-0.01563 -0.0031,-0.01155 -0.0077,-0.02737 -0.01367,-0.04687 -0.01198,-0.03902 -0.03029,-0.09554 -0.05273,-0.164063 -0.04489,-0.137053 -0.108565,-0.325683 -0.179688,-0.533203 -0.142088,-0.41458 -0.368076,-1.072694 -0.501953,-1.46289 l -0.257812,-0.751953 -0.533203,-0.01172 c -0.134591,-0.0027 -0.256112,-0.0019 -0.345703,0 z m 0.002,0.130859 c 0.08685,-0.0018 0.208678,-7.32e-4 0.341797,0.002 l 0.439453,0.0078 0.228515,0.666016 c 0.133869,0.390171 0.359872,1.048331 0.501953,1.46289 0.04541,0.132485 0.07902,0.231468 0.115235,0.339844 -0.02445,-0.03571 -0.03917,-0.05577 -0.06641,-0.0957 -0.185171,-0.271519 -0.431548,-0.634451 -0.675782,-0.998047 -0.244234,-0.363596 -0.487535,-0.728236 -0.669922,-1.003906 -0.09119,-0.137836 -0.165817,-0.254036 -0.21875,-0.335938 -0.01204,-0.01863 -0.01974,-0.02798 -0.029296,-0.04297 0.012467,-4.1e-4 0.018717,-0.0017 0.033204,-0.002 z m -5.3105472,0.002 c 0.1330427,-0.0027 0.2531255,-0.0021 0.3398437,0 0.013615,3.37e-4 0.01942,0.0015 0.03125,0.002 -0.0065,0.01011 -0.00996,0.01558 -0.017578,0.02734 -0.04773,0.07373 -0.1156829,0.179215 -0.2011719,0.308594 -0.1709779,0.258759 -0.4064765,0.61323 -0.6660156,1 L 4.1895,19.10947 v 0.002 c -0.2543987,0.379033 -0.4937148,0.73116 -0.6699219,0.990234 -0.034825,0.0512 -0.054141,0.07936 -0.083984,0.123047 0.033253,-0.103677 0.060582,-0.1952 0.1054687,-0.326171 0.1429037,-0.416972 0.370037,-1.078576 0.5039063,-1.46875 l 0.2285156,-0.666016 z"
         id="path12" />
    </g>
  </g>
</svg>
