<?xml version="1.0" encoding="UTF-8" standalone="no"?>
<svg
   xmlns:dc="http://purl.org/dc/elements/1.1/"
   xmlns:cc="http://creativecommons.org/ns#"
   xmlns:rdf="http://www.w3.org/1999/02/22-rdf-syntax-ns#"
   xmlns:svg="http://www.w3.org/2000/svg"
   xmlns="http://www.w3.org/2000/svg"
   xmlns:sodipodi="http://sodipodi.sourceforge.net/DTD/sodipodi-0.dtd"
   xmlns:inkscape="http://www.inkscape.org/namespaces/inkscape"
   width="102"
   height="87"
   viewBox="0 0 26.987499 23.018751"
   version="1.1"
   id="svg8"
   inkscape:version="1.0.2 (1.0.2+r75+1)"
   sodipodi:docname="fuse-box.svg">
  <defs
     id="defs2" />
  <sodipodi:namedview
     id="base"
     pagecolor="#ffffff"
     bordercolor="#666666"
     borderopacity="1.0"
     inkscape:pageopacity="0.0"
     inkscape:pageshadow="2"
     inkscape:zoom="0.087500001"
     inkscape:cx="-3224.8525"
     inkscape:cy="224.48872"
     inkscape:document-units="px"
     inkscape:current-layer="layer1"
     inkscape:document-rotation="0"
     showgrid="false"
     units="px"
     inkscape:window-width="1753"
     inkscape:window-height="748"
     inkscape:window-x="138"
     inkscape:window-y="202"
     inkscape:window-maximized="0" />
  <metadata
     id="metadata5">
    <rdf:RDF>
      <cc:Work
         rdf:about="">
        <dc:format>image/svg+xml</dc:format>
        <dc:type
           rdf:resource="http://purl.org/dc/dcmitype/StillImage" />
        <dc:title />
      </cc:Work>
    </rdf:RDF>
  </metadata>
  <g
     inkscape:label="Layer 1"
     inkscape:groupmode="layer"
     id="layer1">
    <g
       id="g1201"
       transform="matrix(1.0059872,0,0,1.0059872,-0.08079002,-0.07217368)"
       style="fill:#fabd17;fill-opacity:1">
      <g
         id="g1148"
         transform="matrix(0.20246226,0,0,0.20246226,141.90387,-2.8565515)"
         style="fill:#fabd17;fill-opacity:1">
        <path
           style="color:#000000;font-style:normal;font-variant:normal;font-weight:normal;font-stretch:normal;font-size:medium;line-height:normal;font-family:sans-serif;font-variant-ligatures:normal;font-variant-position:normal;font-variant-caps:normal;font-variant-numeric:normal;font-variant-alternates:normal;font-variant-east-asian:normal;font-feature-settings:normal;font-variation-settings:normal;text-indent:0;text-align:start;text-decoration:none;text-decoration-line:none;text-decoration-style:solid;text-decoration-color:#000000;letter-spacing:normal;word-spacing:normal;text-transform:none;writing-mode:lr-tb;direction:ltr;text-orientation:mixed;dominant-baseline:auto;baseline-shift:baseline;text-anchor:start;white-space:normal;shape-padding:0;shape-margin:0;inline-size:0;clip-rule:nonzero;display:inline;overflow:visible;visibility:visible;opacity:1;isolation:auto;mix-blend-mode:normal;color-interpolation:sRGB;color-interpolation-filters:linearRGB;solid-color:#000000;solid-opacity:1;vector-effect:none;fill:#fabd17;fill-opacity:1;fill-rule:nonzero;stroke:none;stroke-width:0.264583;stroke-linecap:butt;stroke-linejoin:miter;stroke-miterlimit:4;stroke-dasharray:none;stroke-dashoffset:0;stroke-opacity:1;color-rendering:auto;image-rendering:auto;shape-rendering:auto;text-rendering:auto;enable-background:accumulate;stop-color:#000000;stop-opacity:1"
           d="m -605.32203,61.881581 c -0.41974,-0.419735 -0.41516,-1.137105 0.009,-1.489546 0.18375,-0.152496 0.80883,-0.315902 1.38907,-0.363128 l 1.05499,-0.08586 0.0705,-7.254153 c 0.0467,-4.811561 0.16901,-7.372884 0.36312,-7.606771 0.43283,-0.521525 1.49169,-0.428214 1.80605,0.159155 0.1694,0.316545 0.27389,3.238029 0.27389,7.658421 v 7.146647 l 1.22967,0.08064 c 1.40505,0.09214 2.01473,0.682138 1.51872,1.469705 -0.25001,0.39697 -0.79796,0.473467 -3.84126,0.536242 -2.53615,0.05232 -3.64232,-0.01945 -3.87422,-0.251354 z"
           id="path1078" />
        <path
           style="color:#000000;font-style:normal;font-variant:normal;font-weight:normal;font-stretch:normal;font-size:medium;line-height:normal;font-family:sans-serif;font-variant-ligatures:normal;font-variant-position:normal;font-variant-caps:normal;font-variant-numeric:normal;font-variant-alternates:normal;font-variant-east-asian:normal;font-feature-settings:normal;font-variation-settings:normal;text-indent:0;text-align:start;text-decoration:none;text-decoration-line:none;text-decoration-style:solid;text-decoration-color:#000000;letter-spacing:normal;word-spacing:normal;text-transform:none;writing-mode:lr-tb;direction:ltr;text-orientation:mixed;dominant-baseline:auto;baseline-shift:baseline;text-anchor:start;white-space:normal;shape-padding:0;shape-margin:0;inline-size:0;clip-rule:nonzero;display:inline;overflow:visible;visibility:visible;opacity:1;isolation:auto;mix-blend-mode:normal;color-interpolation:sRGB;color-interpolation-filters:linearRGB;solid-color:#000000;solid-opacity:1;vector-effect:none;fill:#fabd17;fill-opacity:1;fill-rule:nonzero;stroke:none;stroke-width:0.264583;stroke-linecap:butt;stroke-linejoin:miter;stroke-miterlimit:4;stroke-dasharray:none;stroke-dashoffset:0;stroke-opacity:1;color-rendering:auto;image-rendering:auto;shape-rendering:auto;text-rendering:auto;enable-background:accumulate;stop-color:#000000;stop-opacity:1"
           d="m -627.06577,61.809691 c -0.17451,-0.210269 -0.27839,-0.656754 -0.23084,-0.992187 0.074,-0.522171 0.2767,-0.628899 1.40938,-0.742167 l 1.32291,-0.132292 0.0703,-7.313221 c 0.0763,-7.935013 0.1167,-8.143182 1.51379,-7.792535 l 0.66489,0.166878 v 7.11707 c 0,3.914389 0.0723,7.305403 0.1606,7.535585 0.11245,0.293036 0.50629,0.418515 1.31361,0.418515 1.34342,0 1.93554,0.654495 1.43621,1.5875 -0.26148,0.488577 -0.55399,0.529167 -3.81337,0.529167 -2.75539,0 -3.59981,-0.08391 -3.84746,-0.382313 z"
           id="path1076" />
        <path
           style="color:#000000;font-style:normal;font-variant:normal;font-weight:normal;font-stretch:normal;font-size:medium;line-height:normal;font-family:sans-serif;font-variant-ligatures:normal;font-variant-position:normal;font-variant-caps:normal;font-variant-numeric:normal;font-variant-alternates:normal;font-variant-east-asian:normal;font-feature-settings:normal;font-variation-settings:normal;text-indent:0;text-align:start;text-decoration:none;text-decoration-line:none;text-decoration-style:solid;text-decoration-color:#000000;letter-spacing:normal;word-spacing:normal;text-transform:none;writing-mode:lr-tb;direction:ltr;text-orientation:mixed;dominant-baseline:auto;baseline-shift:baseline;text-anchor:start;white-space:normal;shape-padding:0;shape-margin:0;inline-size:0;clip-rule:nonzero;display:inline;overflow:visible;visibility:visible;opacity:1;isolation:auto;mix-blend-mode:normal;color-interpolation:sRGB;color-interpolation-filters:linearRGB;solid-color:#000000;solid-opacity:1;vector-effect:none;fill:#fabd17;fill-opacity:1;fill-rule:nonzero;stroke:none;stroke-width:0.264583;stroke-linecap:butt;stroke-linejoin:miter;stroke-miterlimit:4;stroke-dasharray:none;stroke-dashoffset:0;stroke-opacity:1;color-rendering:auto;image-rendering:auto;shape-rendering:auto;text-rendering:auto;enable-background:accumulate;stop-color:#000000;stop-opacity:1"
           d="m -649.03828,61.662837 c -0.49528,-0.925446 0.0819,-1.546707 1.52294,-1.639213 l 1.25519,-0.08058 0.0703,-7.470471 0.0703,-7.470471 0.66078,-0.165846 c 1.39232,-0.349448 1.43345,-0.137078 1.50967,7.793567 l 0.0703,7.313221 1.32291,0.132292 c 1.13268,0.113268 1.33535,0.219996 1.40938,0.742167 0.17334,1.222753 -0.27691,1.3745 -4.0783,1.3745 -3.25938,0 -3.55189,-0.04059 -3.81337,-0.529167 z"
           id="path1074" />
        <path
           style="color:#000000;font-style:normal;font-variant:normal;font-weight:normal;font-stretch:normal;font-size:medium;line-height:normal;font-family:sans-serif;font-variant-ligatures:normal;font-variant-position:normal;font-variant-caps:normal;font-variant-numeric:normal;font-variant-alternates:normal;font-variant-east-asian:normal;font-feature-settings:normal;font-variation-settings:normal;text-indent:0;text-align:start;text-decoration:none;text-decoration-line:none;text-decoration-style:solid;text-decoration-color:#000000;letter-spacing:normal;word-spacing:normal;text-transform:none;writing-mode:lr-tb;direction:ltr;text-orientation:mixed;dominant-baseline:auto;baseline-shift:baseline;text-anchor:start;white-space:normal;shape-padding:0;shape-margin:0;inline-size:0;clip-rule:nonzero;display:inline;overflow:visible;visibility:visible;opacity:1;isolation:auto;mix-blend-mode:normal;color-interpolation:sRGB;color-interpolation-filters:linearRGB;solid-color:#000000;solid-opacity:1;vector-effect:none;fill:#fabd17;fill-opacity:1;fill-rule:nonzero;stroke:none;stroke-width:0.264583;stroke-linecap:butt;stroke-linejoin:miter;stroke-miterlimit:4;stroke-dasharray:none;stroke-dashoffset:0;stroke-opacity:1;color-rendering:auto;image-rendering:auto;shape-rendering:auto;text-rendering:auto;enable-background:accumulate;stop-color:#000000;stop-opacity:1"
           d="m -670.68119,61.874504 c -0.86945,-0.86945 -0.11748,-1.799167 1.4552,-1.799167 h 1.13771 v -7.161144 c 0,-4.430384 0.10445,-7.356298 0.27389,-7.672917 0.31436,-0.587369 1.37322,-0.68068 1.80605,-0.159155 0.19411,0.233887 0.31638,2.79521 0.36312,7.606771 l 0.0705,7.254153 1.25536,0.08058 c 1.08132,0.06941 1.27798,0.17076 1.41861,0.731042 0.31644,1.260821 -0.17188,1.437333 -3.97636,1.437333 -2.35899,0 -3.58925,-0.102682 -3.80406,-0.3175 z"
           id="path1072" />
        <path
           style="color:#000000;font-style:normal;font-variant:normal;font-weight:normal;font-stretch:normal;font-size:medium;line-height:normal;font-family:sans-serif;font-variant-ligatures:normal;font-variant-position:normal;font-variant-caps:normal;font-variant-numeric:normal;font-variant-alternates:normal;font-variant-east-asian:normal;font-feature-settings:normal;font-variation-settings:normal;text-indent:0;text-align:start;text-decoration:none;text-decoration-line:none;text-decoration-style:solid;text-decoration-color:#000000;letter-spacing:normal;word-spacing:normal;text-transform:none;writing-mode:lr-tb;direction:ltr;text-orientation:mixed;dominant-baseline:auto;baseline-shift:baseline;text-anchor:start;white-space:normal;shape-padding:0;shape-margin:0;inline-size:0;clip-rule:nonzero;display:inline;overflow:visible;visibility:visible;opacity:1;isolation:auto;mix-blend-mode:normal;color-interpolation:sRGB;color-interpolation-filters:linearRGB;solid-color:#000000;solid-opacity:1;vector-effect:none;fill:#fabd17;fill-opacity:1;fill-rule:nonzero;stroke:none;stroke-width:0.264583;stroke-linecap:butt;stroke-linejoin:miter;stroke-miterlimit:4;stroke-dasharray:none;stroke-dashoffset:0;stroke-opacity:1;color-rendering:auto;image-rendering:auto;shape-rendering:auto;text-rendering:auto;enable-background:accumulate;stop-color:#000000;stop-opacity:1"
           d="m -603.14509,77.682149 c -0.64601,-0.646004 -0.86041,-1.932487 -0.48508,-2.910589 0.20071,-0.523044 1.45739,-1.202478 2.22411,-1.202478 0.90213,0 2.11089,1.396317 2.10104,2.427044 -0.0195,2.041695 -2.42726,3.09884 -3.84007,1.686023 z"
           id="path1070" />
        <path
           style="color:#000000;font-style:normal;font-variant:normal;font-weight:normal;font-stretch:normal;font-size:medium;line-height:normal;font-family:sans-serif;font-variant-ligatures:normal;font-variant-position:normal;font-variant-caps:normal;font-variant-numeric:normal;font-variant-alternates:normal;font-variant-east-asian:normal;font-feature-settings:normal;font-variation-settings:normal;text-indent:0;text-align:start;text-decoration:none;text-decoration-line:none;text-decoration-style:solid;text-decoration-color:#000000;letter-spacing:normal;word-spacing:normal;text-transform:none;writing-mode:lr-tb;direction:ltr;text-orientation:mixed;dominant-baseline:auto;baseline-shift:baseline;text-anchor:start;white-space:normal;shape-padding:0;shape-margin:0;inline-size:0;clip-rule:nonzero;display:inline;overflow:visible;visibility:visible;opacity:1;isolation:auto;mix-blend-mode:normal;color-interpolation:sRGB;color-interpolation-filters:linearRGB;solid-color:#000000;solid-opacity:1;vector-effect:none;fill:#fabd17;fill-opacity:1;fill-rule:nonzero;stroke:none;stroke-width:0.264583;stroke-linecap:butt;stroke-linejoin:miter;stroke-miterlimit:4;stroke-dasharray:none;stroke-dashoffset:0;stroke-opacity:1;color-rendering:auto;image-rendering:auto;shape-rendering:auto;text-rendering:auto;enable-background:accumulate;stop-color:#000000;stop-opacity:1"
           d="m -624.87428,77.698209 c -0.58862,-0.506309 -0.73635,-0.856964 -0.73635,-1.747872 0,-2.182278 2.30601,-3.146628 3.84479,-1.607851 0.52784,0.527841 0.7734,1.038336 0.7734,1.607851 0,0.569516 -0.24556,1.080011 -0.7734,1.607852 -0.96735,0.967349 -2.08793,1.017826 -3.10844,0.14002 z"
           id="path1068" />
        <path
           style="color:#000000;font-style:normal;font-variant:normal;font-weight:normal;font-stretch:normal;font-size:medium;line-height:normal;font-family:sans-serif;font-variant-ligatures:normal;font-variant-position:normal;font-variant-caps:normal;font-variant-numeric:normal;font-variant-alternates:normal;font-variant-east-asian:normal;font-feature-settings:normal;font-variation-settings:normal;text-indent:0;text-align:start;text-decoration:none;text-decoration-line:none;text-decoration-style:solid;text-decoration-color:#000000;letter-spacing:normal;word-spacing:normal;text-transform:none;writing-mode:lr-tb;direction:ltr;text-orientation:mixed;dominant-baseline:auto;baseline-shift:baseline;text-anchor:start;white-space:normal;shape-padding:0;shape-margin:0;inline-size:0;clip-rule:nonzero;display:inline;overflow:visible;visibility:visible;opacity:1;isolation:auto;mix-blend-mode:normal;color-interpolation:sRGB;color-interpolation-filters:linearRGB;solid-color:#000000;solid-opacity:1;vector-effect:none;fill:#fabd17;fill-opacity:1;fill-rule:nonzero;stroke:none;stroke-width:0.264583;stroke-linecap:butt;stroke-linejoin:miter;stroke-miterlimit:4;stroke-dasharray:none;stroke-dashoffset:0;stroke-opacity:1;color-rendering:auto;image-rendering:auto;shape-rendering:auto;text-rendering:auto;enable-background:accumulate;stop-color:#000000;stop-opacity:1"
           d="m -646.67738,77.558189 c -0.52784,-0.527841 -0.7734,-1.038336 -0.7734,-1.607852 0,-1.118753 1.24389,-2.38125 2.34615,-2.38125 2.09016,0 3.11925,2.767 1.53569,4.129122 -1.02051,0.877806 -2.14109,0.827329 -3.10844,-0.14002 z"
           id="path1066" />
        <path
           style="color:#000000;font-style:normal;font-variant:normal;font-weight:normal;font-stretch:normal;font-size:medium;line-height:normal;font-family:sans-serif;font-variant-ligatures:normal;font-variant-position:normal;font-variant-caps:normal;font-variant-numeric:normal;font-variant-alternates:normal;font-variant-east-asian:normal;font-feature-settings:normal;font-variation-settings:normal;text-indent:0;text-align:start;text-decoration:none;text-decoration-line:none;text-decoration-style:solid;text-decoration-color:#000000;letter-spacing:normal;word-spacing:normal;text-transform:none;writing-mode:lr-tb;direction:ltr;text-orientation:mixed;dominant-baseline:auto;baseline-shift:baseline;text-anchor:start;white-space:normal;shape-padding:0;shape-margin:0;inline-size:0;clip-rule:nonzero;display:inline;overflow:visible;visibility:visible;opacity:1;isolation:auto;mix-blend-mode:normal;color-interpolation:sRGB;color-interpolation-filters:linearRGB;solid-color:#000000;solid-opacity:1;vector-effect:none;fill:#fabd17;fill-opacity:1;fill-rule:nonzero;stroke:none;stroke-width:0.264583;stroke-linecap:butt;stroke-linejoin:miter;stroke-miterlimit:4;stroke-dasharray:none;stroke-dashoffset:0;stroke-opacity:1;color-rendering:auto;image-rendering:auto;shape-rendering:auto;text-rendering:auto;enable-background:accumulate;stop-color:#000000;stop-opacity:1"
           d="m -667.95599,78.012018 c -1.42966,-0.819909 -1.61722,-2.469536 -0.41722,-3.669532 0.8626,-0.862606 1.537,-0.960448 2.65064,-0.384562 2.03716,1.05346 1.2015,4.395727 -1.09154,4.365617 -0.33699,-0.0044 -0.85083,-0.14461 -1.14188,-0.311523 z"
           id="path1064" />
      </g>
      <path
         style="color:#000000;font-style:normal;font-variant:normal;font-weight:normal;font-stretch:normal;font-size:medium;line-height:normal;font-family:sans-serif;font-variant-ligatures:normal;font-variant-position:normal;font-variant-caps:normal;font-variant-numeric:normal;font-variant-alternates:normal;font-variant-east-asian:normal;font-feature-settings:normal;font-variation-settings:normal;text-indent:0;text-align:start;text-decoration:none;text-decoration-line:none;text-decoration-style:solid;text-decoration-color:#000000;letter-spacing:normal;word-spacing:normal;text-transform:none;writing-mode:lr-tb;direction:ltr;text-orientation:mixed;dominant-baseline:auto;baseline-shift:baseline;text-anchor:start;white-space:normal;shape-padding:0;shape-margin:0;inline-size:0;clip-rule:nonzero;display:inline;overflow:visible;visibility:visible;opacity:1;isolation:auto;mix-blend-mode:normal;color-interpolation:sRGB;color-interpolation-filters:linearRGB;solid-color:#000000;solid-opacity:1;vector-effect:none;fill:#fabd17;fill-opacity:1;fill-rule:nonzero;stroke:none;stroke-width:0.334114;stroke-linecap:butt;stroke-linejoin:miter;stroke-miterlimit:4;stroke-dasharray:none;stroke-dashoffset:0;stroke-opacity:1;color-rendering:auto;image-rendering:auto;shape-rendering:auto;text-rendering:auto;enable-background:accumulate;stop-color:#000000;stop-opacity:1"
         d="M 3.1926499,3.300004 V 9.5033062 15.706611 H 13.493424 23.79485 V 9.5033062 3.300004 H 13.493424 Z m 0.7817778,0.7824259 h 9.5189963 9.519001 V 9.5033062 14.924182 H 13.493424 3.9744277 V 9.5033062 Z"
         id="path1062" />
      <path
         style="color:#000000;font-style:normal;font-variant:normal;font-weight:normal;font-stretch:normal;font-size:medium;line-height:normal;font-family:sans-serif;font-variant-ligatures:normal;font-variant-position:normal;font-variant-caps:normal;font-variant-numeric:normal;font-variant-alternates:normal;font-variant-east-asian:normal;font-feature-settings:normal;font-variation-settings:normal;text-indent:0;text-align:start;text-decoration:none;text-decoration-line:none;text-decoration-style:solid;text-decoration-color:#000000;letter-spacing:normal;word-spacing:normal;text-transform:none;writing-mode:lr-tb;direction:ltr;text-orientation:mixed;dominant-baseline:auto;baseline-shift:baseline;text-anchor:start;white-space:normal;shape-padding:0;shape-margin:0;inline-size:0;clip-rule:nonzero;display:inline;overflow:visible;visibility:visible;opacity:1;isolation:auto;mix-blend-mode:normal;color-interpolation:sRGB;color-interpolation-filters:linearRGB;solid-color:#000000;solid-opacity:1;vector-effect:none;fill:#fabd17;fill-opacity:1;fill-rule:nonzero;stroke:none;stroke-width:0.334114;stroke-linecap:butt;stroke-linejoin:miter;stroke-miterlimit:4;stroke-dasharray:none;stroke-dashoffset:0;stroke-opacity:1;color-rendering:auto;image-rendering:auto;shape-rendering:auto;text-rendering:auto;enable-background:accumulate;stop-color:#000000;stop-opacity:1"
         d="m 13.493474,0.5357287 c -3.186796,0 -6.3732059,0.00587 -8.7698492,0.017619 -1.1983246,0.00587 -2.1990777,0.012734 -2.9045769,0.021534 -0.352751,0.0044 -0.631322,0.0091 -0.82615078,0.014359 -0.0974124,0.00264 -0.17335241,0.00538 -0.23100995,0.00852 -0.0288263,0.00157 -0.0518874,0.00323 -0.0776598,0.00587 -0.0128813,0.00137 -0.0259975,0.00215 -0.0489411,0.00656 -0.0114718,0.00215 -0.0245195,0.0048 -0.0502527,0.013048 -0.0257333,0.00822 -0.15951286,0.096864 -0.15987991,0.097236 -3.6804e-4,3.671e-4 -0.075477,0.1039091 -0.0861364,0.1298634 -0.0106594,0.025949 -0.014976,0.041355 -0.0182746,0.054159 -0.006558,0.025616 -0.008516,0.039349 -0.0104441,0.05221 -0.003818,0.025714 -0.005384,0.04486 -0.007146,0.067216 -0.003524,0.044703 -0.005775,0.097935 -0.008516,0.165751 -0.005286,0.1356304 -0.009955,0.3260995 -0.0143593,0.565773 -0.008809,0.4793471 -0.0163365,1.155508 -0.0221899,1.9648798 -0.0116969,1.6187407 -0.0176188,3.7676685 -0.0176188,5.9168259 0,2.1491612 0.00597,4.2980872 0.0176188,5.9168282 0.005873,0.809369 0.0133707,1.486185 0.0221899,1.965532 0.004405,0.239673 0.009005,0.429491 0.0143594,0.565124 0.002643,0.06781 0.004992,0.121702 0.008516,0.166403 0.001762,0.02235 0.003425,0.0415 0.007146,0.06722 0.00186,0.01286 0.003818,0.02658 0.0104441,0.05221 0.003328,0.0128 0.007635,0.02821 0.0182746,0.05416 0.0106593,0.02595 0.0857742,0.129495 0.0861364,0.129862 0.12333459,0.123319 0.16530258,0.102403 0.2016443,0.111589 0.0363437,0.0092 0.0626348,0.01259 0.0913536,0.01631 0.0574569,0.0074 0.1209903,0.01252 0.20360294,0.01697 0.1652263,0.0089 0.4036469,0.01521 0.7419682,0.02024 0.6766413,0.01002 1.7497333,0.01371 3.3770348,0.01371 h 3.8834279 v 1.242488 1.243143 H 5.0603359 c -1.8986184,0 -2.9633778,0.0019 -3.5721535,0.0137 -0.3043884,0.0059 -0.49275598,0.01366 -0.62972557,0.02741 -0.13678361,0.01373 -0.25406712,-0.0014 -0.41307587,0.15727 -0.22515271,0.225106 -0.26774618,0.639321 -0.0202323,0.886836 L 0.53934888,22.41901 H 0.6555038 c 0.006852,0.0012 0.016454,0.0036 0.0228359,0.0046 0.036148,0.0054 0.0696629,0.008 0.10963303,0.01109 0.0799306,0.0061 0.18269039,0.01164 0.31062247,0.01631 0.2558653,0.0093 0.6093582,0.01694 1.0310535,0.02283 0.8433958,0.01181 1.9562799,0.01656 3.069025,0.01566 1.1127442,-9.02e-4 2.2251047,-0.0077 3.0664155,-0.02088 0.4206529,-0.0065 0.7727794,-0.01439 1.0271372,-0.02415 0.1271815,-0.0049 0.2293901,-0.01064 0.3086649,-0.01698 0.039643,-0.0031 0.072511,-0.0061 0.1089782,-0.01174 0.018235,-0.0028 0.036539,-0.0053 0.067216,-0.01371 0.030677,-0.0084 0.069732,0.0334 0.206863,-0.131817 0.1258215,-0.151645 0.088781,-0.176066 0.097231,-0.219915 0.0084,-0.04385 0.01358,-0.08443 0.01827,-0.132473 0.0094,-0.09607 0.01661,-0.218571 0.02284,-0.37653 0.01248,-0.315916 0.02066,-0.771518 0.02545,-1.379528 l 0.01109,-1.401728 h 1.352771 1.356038 l 0.02088,1.430427 c 0.0122,0.827405 0.0201,1.280347 0.03785,1.556373 0.0089,0.138015 0.01722,0.230267 0.04502,0.332156 0.02781,0.101892 0.124397,0.250412 0.219917,0.310622 0.07115,0.04485 0.17809,0.09267 0.302136,0.09267 0.12405,0 0.231638,-0.04781 0.302792,-0.09267 0.09551,-0.06021 0.192109,-0.20873 0.219917,-0.310622 0.02781,-0.101889 0.0355,-0.194141 0.04437,-0.332156 0.01775,-0.276026 0.02629,-0.728968 0.0385,-1.556373 l 0.02088,-1.430427 h 1.356037 1.352769 l 0.0111,1.401714 c 0.0048,0.60801 0.01298,1.063612 0.02545,1.379528 0.0062,0.157956 0.01345,0.280466 0.02284,0.37653 0.0047,0.04804 0.0098,0.08862 0.01827,0.132473 0.0084,0.04385 -0.0286,0.06827 0.09723,0.219915 0.137124,0.165218 0.176188,0.123354 0.206863,0.131817 0.03067,0.0085 0.04898,0.0109 0.06722,0.01371 0.03647,0.0056 0.06934,0.0086 0.108981,0.01174 0.07928,0.0063 0.180833,0.01208 0.308012,0.01698 0.254357,0.0098 0.607138,0.01755 1.027791,0.02415 0.841307,0.01319 1.953015,0.01997 3.065761,0.02088 1.112749,9.02e-4 2.225633,-0.0038 3.069025,-0.01566 0.421695,-0.0059 0.775843,-0.0135 1.031708,-0.02283 0.127933,-0.0047 0.230689,-0.01015 0.310623,-0.01631 0.03996,-0.003 0.07349,-0.0058 0.10963,-0.01109 0.01807,-0.0026 0.03562,-0.0055 0.0646,-0.01306 0.02898,-0.0076 0.05966,0.02255 0.188593,-0.106369 0.247478,-0.247535 0.204889,-0.66172 -0.02024,-0.886837 -0.15934,-0.159362 -0.276103,-0.143518 -0.413077,-0.15727 -0.136973,-0.01375 -0.325339,-0.02151 -0.629724,-0.02741 -0.608777,-0.0118 -1.67419,-0.0137 -3.572806,-0.0137 H 18.063368 V 19.975718 18.73323 h 3.883426 c 1.627303,0 2.700396,-0.0037 3.377037,-0.01371 0.338318,-0.005 0.576738,-0.01135 0.741969,-0.02024 0.08261,-0.0044 0.14549,-0.0095 0.202946,-0.01697 0.02873,-0.0037 0.05566,-0.0071 0.09201,-0.01632 0.03634,-0.0092 0.07832,0.01174 0.201646,-0.111589 3.68e-4,-3.67e-4 0.07548,-0.103909 0.08614,-0.129863 0.01066,-0.02595 0.01497,-0.04135 0.01827,-0.05416 0.0065,-0.02562 0.0085,-0.03935 0.01045,-0.05221 0.0038,-0.02571 0.0054,-0.04486 0.0071,-0.06722 0.0035,-0.0447 0.0058,-0.09859 0.0085,-0.166403 0.0053,-0.135633 0.01,-0.325451 0.01436,-0.565124 0.0088,-0.479347 0.01635,-1.156163 0.02219,-1.965532 0.01169,-1.618741 0.01762,-3.767667 0.01762,-5.9168292 0,-2.1491562 -0.006,-4.298084 -0.01762,-5.9168247 -0.0059,-0.8093718 -0.01337,-1.4855327 -0.02219,-1.9648798 -0.0044,-0.2396735 -0.009,-0.4301426 -0.01436,-0.5657761 -0.0026,-0.067813 -0.005,-0.12105 -0.0085,-0.1657509 -0.0018,-0.022357 -0.0034,-0.041502 -0.0071,-0.067216 -0.0019,-0.012852 -0.0038,-0.026594 -0.01045,-0.05221 -0.0033,-0.012803 -0.0076,-0.02821 -0.01827,-0.054159 -0.01066,-0.025959 -0.08578,-0.1294964 -0.08614,-0.1298634 -3.67e-4,-3.641e-4 -0.13415,-0.089004 -0.159881,-0.097236 -0.02573,-0.00822 -0.03943,-0.010875 -0.0509,-0.013048 -0.02294,-0.00431 -0.03541,-0.00519 -0.04828,-0.00656 -0.02577,-0.00264 -0.04883,-0.00431 -0.07766,-0.00587 -0.05765,-0.00313 -0.133593,-0.00587 -0.231007,-0.00852 -0.194829,-0.00519 -0.4734,-0.00996 -0.826151,-0.014359 -0.7055,-0.00881 -1.706252,-0.015681 -2.904576,-0.021534 -2.396644,-0.011707 -5.583708,-0.017619 -8.770505,-0.017619 z m 0,0.7817738 c 3.185842,0 6.372057,0.00597 8.766588,0.017619 1.197265,0.00588 2.197029,0.013439 2.898707,0.02218 0.325554,0.00411 0.57046,0.00773 0.756324,0.012401 0.0035,0.1149392 0.0072,0.2275752 0.01045,0.4000252 0.0087,0.4737443 0.0157,1.1485857 0.02154,1.9563973 0.01168,1.6156201 0.01762,3.7632108 0.01762,5.9109518 0,2.1477432 -0.006,4.2959852 -0.01762,5.9116062 -0.0059,0.807811 -0.01283,1.482653 -0.02154,1.956397 -0.0033,0.179415 -0.0074,0.298725 -0.0111,0.415685 -0.145686,0.0062 -0.319787,0.01212 -0.602318,0.01632 -0.667293,0.0099 -1.739219,0.01371 -3.36529,0.01371 h -4.665856 v 0.02675 H 15.475974 13.637691 13.349256 11.511628 9.7066267 v -0.02675 H 5.0407691 c -1.626068,0 -2.6979943,-0.0038 -3.365287,-0.01371 -0.2825813,-0.0042 -0.4572825,-0.01006 -0.6029734,-0.01632 -0.00362,-0.11696 -0.00715,-0.23627 -0.010444,-0.415685 -0.00871,-0.473744 -0.016356,-1.148586 -0.02219,-1.956397 -0.011677,-1.615621 -0.016973,-3.763863 -0.016973,-5.9116062 0,-2.147741 0.00529,-4.2953317 0.016973,-5.9109518 0.00587,-0.8078116 0.013478,-1.482653 0.02219,-1.9563973 0.00313,-0.1724461 0.00626,-0.285086 0.00979,-0.4000252 0.1858912,-0.0046 0.431142,-0.00832 0.7569764,-0.012401 0.7016768,-0.00871 1.7014374,-0.016336 2.8987029,-0.02218 2.394535,-0.011697 5.580099,-0.017619 8.765938,-0.017619 z"
         id="path1050" />
    </g>
  </g>
</svg>
