<?xml version="1.0" encoding="UTF-8" standalone="no"?>
<svg
   xmlns:dc="http://purl.org/dc/elements/1.1/"
   xmlns:cc="http://creativecommons.org/ns#"
   xmlns:rdf="http://www.w3.org/1999/02/22-rdf-syntax-ns#"
   xmlns:svg="http://www.w3.org/2000/svg"
   xmlns="http://www.w3.org/2000/svg"
   xmlns:sodipodi="http://sodipodi.sourceforge.net/DTD/sodipodi-0.dtd"
   xmlns:inkscape="http://www.inkscape.org/namespaces/inkscape"
   width="72"
   height="62"
   viewBox="0 0 19.049999 16.404167"
   version="1.1"
   id="svg8"
   inkscape:version="1.0.2 (1.0.2+r75+1)"
   sodipodi:docname="home-icon.svg">
  <defs
     id="defs2" />
  <sodipodi:namedview
     id="base"
     pagecolor="#ffffff"
     bordercolor="#666666"
     borderopacity="1.0"
     inkscape:pageopacity="0.0"
     inkscape:pageshadow="2"
     inkscape:zoom="1.4"
     inkscape:cx="-59.421558"
     inkscape:cy="68.384028"
     inkscape:document-units="px"
     inkscape:current-layer="layer1"
     inkscape:document-rotation="0"
     showgrid="false"
     units="px"
     inkscape:window-width="1850"
     inkscape:window-height="1010"
     inkscape:window-x="70"
     inkscape:window-y="33"
     inkscape:window-maximized="1" />
  <metadata
     id="metadata5">
    <rdf:RDF>
      <cc:Work
         rdf:about="">
        <dc:format>image/svg+xml</dc:format>
        <dc:type
           rdf:resource="http://purl.org/dc/dcmitype/StillImage" />
        <dc:title></dc:title>
      </cc:Work>
    </rdf:RDF>
  </metadata>
  <g
     inkscape:label="Layer 1"
     inkscape:groupmode="layer"
     id="layer1">
    <path
       style="fill:#fabd17;fill-opacity:1;stroke-width:0.0279178"
       d="M 3.1977455,16.122245 C 2.9873776,16.071813 2.8287567,15.917208 2.7699267,15.705422 2.7518049,15.640239 2.7418168,14.327206 2.7417185,11.996056 L 2.7415611,8.3876887 1.7435,8.3875061 C 1.1260271,8.3874218 0.70476593,8.3762677 0.63877293,8.3577244 0.39702968,8.2905753 0.20757848,8.0104243 0.2356308,7.7615299 0.26480837,7.5026475 0.27353214,7.4942889 1.8089901,6.2539612 2.605969,5.6101723 4.5583136,4.0329751 6.1475394,2.7490988 7.7367547,1.4652155 9.0781221,0.3844725 9.1283576,0.34744213 9.2444638,0.26189018 9.5210396,0.23701831 9.6661759,0.2992577 9.7193473,0.32201536 10.41616,0.86904912 11.214617,1.5148048 l 1.451721,1.1741197 0.01707,-0.2712798 c 0.01819,-0.2906308 0.05352,-0.3896125 0.182883,-0.5124407 0.16597,-0.157646 0.200366,-0.162057 1.257895,-0.1613827 0.878853,5.9e-4 0.981663,0.00562 1.082948,0.051415 0.140747,0.063918 0.281029,0.2217397 0.319141,0.35896 0.01854,0.066587 0.02992,0.6148502 0.03119,1.4873817 l 0.0014,1.3819379 1.371605,1.0469156 c 1.837415,1.402448 1.774901,1.3517911 1.83712,1.4888288 C 18.909656,7.872157 18.73247,8.268639 18.410667,8.358019 18.346187,8.376 17.91757,8.387379 17.307559,8.387379 l -0.997663,1.827e-4 -0.007,3.6827513 -0.007,3.682758 -0.085,0.121093 c -0.04678,0.06659 -0.140957,0.152456 -0.209371,0.190849 l -0.124331,0.06982 -6.2954644,0.0042 c -3.462501,0.0028 -6.335157,-0.0056 -6.3836729,-0.01686 z M 15.164982,11.332109 c 0,-3.9550642 -0.0077,-3.7500485 0.147903,-3.91691 0.140564,-0.1506922 0.231616,-0.1721434 0.730395,-0.1721434 0.253965,0 0.461763,-0.011238 0.461763,-0.024865 0,-0.014048 -0.442855,-0.3641296 -0.984108,-0.7787475 C 14.898829,5.9628879 14.51629,5.651115 14.480994,5.5919029 14.427893,5.502839 14.424522,5.4347697 14.411176,4.2000472 l -0.01391,-1.2981841 h -0.279182 -0.279175 l -0.01405,0.6002404 C 13.809903,4.1431811 13.798805,4.196774 13.65303,4.3293866 13.490903,4.4768689 13.228073,4.5239997 13.035293,4.4400843 12.985844,4.418591 12.160268,3.7656077 11.20059,2.9889884 10.240919,2.2123762 9.4470421,1.5798256 9.4364218,1.5833095 9.3965257,1.5959527 2.4644957,7.2020497 2.4634337,7.222068 c -5.872e-4,0.011238 0.2255249,0.020931 0.5025222,0.020931 0.4407807,0 0.5165581,0.00702 0.607213,0.053242 0.1263359,0.065042 0.2434248,0.1850816 0.2832683,0.2905324 0.020426,0.054085 0.029697,1.2191715 0.029697,3.7339986 v 3.655421 h 5.6393937 5.6393971 z m -5.7929419,2.641939 c -0.086971,-0.03835 -0.1801297,-0.152062 -0.2100518,-0.256396 -0.014961,-0.05226 -0.027253,-0.443725 -0.027253,-0.869918 v -0.774906 h -0.079273 c -0.1493296,0 -0.5209116,-0.1114 -0.7540723,-0.225919 C 7.7444881,11.573206 7.3727515,11.026011 7.2125699,10.244215 7.1384459,9.8824877 7.1040425,9.5099715 7.0808494,8.8181246 7.0632192,8.2921487 7.0655371,8.2495623 7.1188491,8.1291434 7.1970118,7.9524484 7.2953193,7.9056618 7.620227,7.8905181 L 7.8784633,7.8778749 7.8785686,6.8133431 C 7.8786529,5.8210599 7.8820806,5.7429815 7.9311079,5.662824 8.037795,5.487892 8.3083794,5.4355072 8.475599,5.5574644 8.6290517,5.6694265 8.6322476,5.6954152 8.6322476,6.8348927 l -7e-6,1.0496831 H 9.5256052 10.418977 V 6.8507106 c 0,-1.1211449 0.0049,-1.161336 0.152996,-1.2778918 0.169636,-0.1334624 0.420082,-0.097781 0.53753,0.076421 0.06301,0.093419 0.06329,0.098336 0.06329,1.1612518 v 1.0673835 l 0.258236,0.012643 c 0.285237,0.012643 0.407714,0.059142 0.4883,0.1828831 0.04376,0.067149 0.04853,0.146815 0.04404,0.7250843 -0.0072,0.9077849 -0.07804,1.4398575 -0.25752,1.9316615 -0.275655,0.755316 -0.807939,1.199125 -1.586778,1.323042 l -0.2025779,0.03217 v 0.790274 c 0,0.85174 -0.00787,0.906612 -0.1490346,1.036745 -0.078851,0.07263 -0.2941077,0.106202 -0.3953582,0.06167 z m 0.7677339,-2.697611 c 0.502193,-0.154935 0.77676,-0.460288 0.919234,-1.022304 0.08045,-0.317364 0.113999,-0.5995099 0.133146,-1.1196559 l 0.01721,-0.4676208 H 9.525556 7.841763 l 0.018192,0.4397076 c 0.039053,0.9437191 0.1616567,1.4433971 0.4413863,1.7984381 0.1495543,0.189809 0.4646917,0.355223 0.7872254,0.413241 0.2214587,0.0399 0.8702276,0.01405 1.0512003,-0.04186 z"
       id="path56" />
  </g>
</svg>
