<?xml version="1.0" encoding="UTF-8" standalone="no"?>
<svg
   xmlns:dc="http://purl.org/dc/elements/1.1/"
   xmlns:cc="http://creativecommons.org/ns#"
   xmlns:rdf="http://www.w3.org/1999/02/22-rdf-syntax-ns#"
   xmlns:svg="http://www.w3.org/2000/svg"
   xmlns="http://www.w3.org/2000/svg"
   xmlns:sodipodi="http://sodipodi.sourceforge.net/DTD/sodipodi-0.dtd"
   xmlns:inkscape="http://www.inkscape.org/namespaces/inkscape"
   width="102"
   height="87"
   viewBox="0 0 26.987499 23.018751"
   version="1.1"
   id="svg8"
   inkscape:version="1.0.2 (1.0.2+r75+1)"
   sodipodi:docname="home-icon.svg">
  <defs
     id="defs2" />
  <sodipodi:namedview
     id="base"
     pagecolor="#ffffff"
     bordercolor="#666666"
     borderopacity="1.0"
     inkscape:pageopacity="0.0"
     inkscape:pageshadow="2"
     inkscape:zoom="0.175"
     inkscape:cx="943.61708"
     inkscape:cy="294.32521"
     inkscape:document-units="px"
     inkscape:current-layer="layer1"
     inkscape:document-rotation="0"
     showgrid="false"
     units="px"
     inkscape:window-width="1850"
     inkscape:window-height="1010"
     inkscape:window-x="70"
     inkscape:window-y="33"
     inkscape:window-maximized="1" />
  <metadata
     id="metadata5">
    <rdf:RDF>
      <cc:Work
         rdf:about="">
        <dc:format>image/svg+xml</dc:format>
        <dc:type
           rdf:resource="http://purl.org/dc/dcmitype/StillImage" />
        <dc:title />
      </cc:Work>
    </rdf:RDF>
  </metadata>
  <g
     inkscape:label="Layer 1"
     inkscape:groupmode="layer"
     id="layer1">
    <path
       style="fill:#fabd17;fill-opacity:1;stroke-width:0.0397464"
       d="m 4.4856609,22.78527 c -0.2995,-0.0718 -0.525328,-0.29191 -0.609084,-0.59343 -0.0258,-0.0928 -0.04002,-1.96216 -0.04016,-5.28101 l -2.24e-4,-5.13722 -1.420936,-2.6e-4 c -0.879094,-1.2e-4 -1.47884204,-0.016 -1.57279603,-0.0424 -0.344169,-0.0956 -0.61389,-0.49445 -0.573952,-0.8488 0.04154,-0.36857 0.05396,-0.38047 2.23998603,-2.1463201 1.134656,-0.91656 3.914202,-3.16201 6.176777,-4.98986 2.2625601,-1.82786 4.1722601,-3.36650999 4.2437801,-3.41922999 0.1653,-0.1218 0.55906,-0.15721 0.76569,-0.0686 0.0757,0.0324 1.06775,0.81120999 2.20451,1.73056999 l 2.06681,1.67159 0.0243,-0.38622 c 0.0259,-0.41377 0.0762,-0.55469 0.26037,-0.72956 0.23629,-0.22444 0.28526,-0.23072 1.79086,-0.22976 1.25122,8.4e-4 1.39759,0.008 1.54179,0.0732 0.20038,0.091 0.4001,0.31569 0.45436,0.51105 0.0264,0.0948 0.0426,0.87536 0.0444,2.11758 l 0.002,1.96746 1.95275,1.49049 c 2.61592,1.9966601 2.52692,1.9245401 2.6155,2.1196401 0.20226,0.44547 -0.05,1.00994 -0.50815,1.13719 -0.0918,0.0256 -0.70202,0.0418 -1.57049,0.0418 l -1.42037,2.6e-4 -0.01,5.24312 -0.01,5.24313 -0.12101,0.1724 c -0.0666,0.0948 -0.20068,0.21705 -0.29808,0.27171 l -0.17701,0.0994 -8.96283,0.006 c -4.9295501,0.004 -9.0193401,-0.008 -9.0884121,-0.024 z m 17.0377111,-6.8197 c 0,-5.63081 -0.011,-5.33893 0.21057,-5.57649 0.20012,-0.21454 0.32975,-0.24508 1.03986,-0.24508 0.36157,0 0.65741,-0.016 0.65741,-0.0354 0,-0.02 -0.63049,-0.5184101 -1.40107,-1.1087001 -0.88569,-0.67847 -1.43031,-1.12234 -1.48056,-1.20664 -0.0756,-0.1268 -0.0804,-0.22371 -0.0994,-1.98158 l -0.0198,-1.84822 h -0.39747 -0.39746 l -0.02,0.85456 c -0.0213,0.9127 -0.0371,0.989 -0.24464,1.1778 -0.23082,0.20997 -0.60501,0.27707 -0.87947,0.1576 -0.0704,-0.0306 -1.24577,-0.96025 -2.61206,-2.06592 -1.36628,-1.10566 -2.49652,-2.00622 -2.51164,-2.00126 -0.0568,0.018 -9.9259061,7.9993801 -9.9274181,8.0278801 -8.36e-4,0.016 0.321079,0.0298 0.715439,0.0298 0.627538,0 0.735422,0.01 0.864487,0.0758 0.179864,0.0926 0.346563,0.2635 0.403288,0.41363 0.02908,0.077 0.04228,1.73573 0.04228,5.31608 v 5.20421 h 8.0287841 8.02879 z m -8.24739,3.76132 c -0.12382,-0.0546 -0.25645,-0.21649 -0.29905,-0.36503 -0.0213,-0.0744 -0.0388,-0.63173 -0.0388,-1.2385 v -1.10323 h -0.11286 c -0.2126,0 -0.74162,-0.1586 -1.07357,-0.32164 -0.79286,-0.38967 -1.3221,-1.16871 -1.55015,-2.28175 -0.10553,-0.51499 -0.15451,-1.04534 -0.18753,-2.03032 -0.0251,-0.74883 -0.0218,-0.80946 0.0541,-0.9809 0.11128,-0.25156 0.25124,-0.31817 0.71381,-0.33973 l 0.36765,-0.018 1.5e-4,-1.5155701 c 1.2e-4,-1.41271 0.005,-1.52387 0.0748,-1.63799 0.15189,-0.24905 0.53712,-0.32363 0.77519,-0.15 0.21847,0.1594 0.22302,0.1964 0.22302,1.81867 l -10e-6,1.4944301 h 1.27188 1.27189 V 9.5854199 c 0,-1.59617 0.007,-1.65339 0.21782,-1.81933 0.24151,-0.19001 0.59807,-0.13921 0.76528,0.1088 0.0897,0.133 0.0901,0.14 0.0901,1.65327 V 11.04779 l 0.36765,0.018 c 0.40609,0.018 0.58046,0.0842 0.69519,0.26037 0.0623,0.0956 0.0691,0.20902 0.0627,1.0323 -0.0102,1.29241 -0.1111,2.04992 -0.36663,2.7501 -0.39245,1.07534 -1.15026,1.70719 -2.25909,1.88361 l -0.28841,0.0458 v 1.12511 c 0,1.21262 -0.0112,1.29074 -0.21218,1.47601 -0.11226,0.1034 -0.41872,0.1512 -0.56287,0.0878 z m 1.09302,-3.84058 c 0.71497,-0.22058 1.10587,-0.65531 1.30871,-1.45545 0.11454,-0.45183 0.1623,-0.85352 0.18956,-1.59405 l 0.0245,-0.66575 h -2.39723 -2.39721 l 0.0259,0.62601 c 0.0556,1.34357 0.23015,2.05496 0.6284,2.56043 0.21292,0.27023 0.66158,0.50573 1.12077,0.58833 0.31529,0.0568 1.23894,0.02 1.49659,-0.0596 z"
       id="path56" />
  </g>
</svg>
